<svg id="Layer_1" data-name="Layer 1" xmlns="http://www.w3.org/2000/svg" viewBox="0 0 267.96 182.55"><defs><style>.cls-1{stroke:#000;stroke-miterlimit:10;}.cls-2{font-size:41.21px;font-family:ALoveofThunder, A Love of Thunder;}.cls-3{letter-spacing:0.03em;}.cls-4{letter-spacing:0.01em;}.cls-5{letter-spacing:-0.06em;}.cls-6{letter-spacing:0em;}.cls-7{font-size:19.53px;font-family:AmericanTypewriter, American Typewriter;}</style></defs><title>Ferdiglogo</title><path class="cls-1" d="M39.55,99.28s-4.29-73.32,58-88c0,0,45.4-6.75,77.61,0,0,0,69.33,12.58,60.12,88C235.26,99.28,135.25,112.78,39.55,99.28Z" transform="translate(-3.62 -7.74)"/><path class="cls-1" d="M266.24,100.81s-120.56,22.39-256.76,0c0,0-10.74,6.75-1.84,15s188.66,16.56,262.28,0C269.92,115.85,274.22,103,266.24,100.81Z" transform="translate(-3.62 -7.74)"/><text class="cls-2" transform="translate(62.35 152.86)"><tspan class="cls-3">A</tspan><tspan class="cls-4" x="34.54" y="0">A</tspan><tspan x="68.25" y="0">L</tspan><tspan class="cls-5" x="89.84" y="0">B</tspan><tspan class="cls-6" x="115.23" y="0">Y</tspan></text><text class="cls-7" transform="translate(91.07 175.42)">DESIGNS</text></svg>