<?xml version="1.0" encoding="utf-8"?>
<!-- Generator: Adobe Illustrator 21.1.0, SVG Export Plug-In . SVG Version: 6.00 Build 0)  -->
<svg version="1.1" id="Layer_1" xmlns="http://www.w3.org/2000/svg" xmlns:xlink="http://www.w3.org/1999/xlink" x="0px" y="0px"
	 viewBox="0 0 600 600" style="enable-background:new 0 0 600 600;" xml:space="preserve">
<style type="text/css">
	.st0{fill:#4E87A4;}
	.st1{fill:none;}
	.st2{fill:#BCBCBC;}
	.st3{fill:#FFDA00;}
	.st4{fill:#FFF80B;stroke:#000000;stroke-width:0.1;stroke-miterlimit:10;}
	.st5{fill:none;stroke:#000000;stroke-width:0.1;stroke-miterlimit:10;}
</style>
<rect class="st0" width="600" height="600"/>
<g>
	<path class="st1" d="M318.7,227c-16.2-24.7-48-41.4-84.6-41.4c-53,0-96,35.3-96,78.8c0,38.8,34.2,71,79.2,77.6
		c-0.1-2-0.2-4.1-0.2-6.1C217.1,283.7,260.2,239.9,318.7,227z"/>
	<path class="st1" d="M254.9,355.4c10.9,37.3,51.9,65.1,100.7,65.1c57.2,0,103.6-38.1,103.6-85s-46.4-85-103.6-85
		c-3.3,0-6.5,0.1-9.7,0.4c0.7,4.3,1.1,8.6,1.1,13.1C347,309.3,307.4,347.1,254.9,355.4z"/>
	<path class="st1" d="M330.2,264.3c0-3.7-0.3-7.4-0.9-11c-44.4,9.6-77.2,42.8-77.2,82.2c0,2.1,0.1,4.1,0.3,6.2
		C296.7,334.7,330.2,302.7,330.2,264.3z"/>
	<path class="st2" d="M330.2,264.3c0,38.4-33.5,70.4-77.8,77.4c0.4,4.7,1.3,9.3,2.6,13.7c52.4-8.2,92.1-46,92.1-91.4
		c0-4.4-0.4-8.8-1.1-13.1c-5.7,0.4-11.3,1.3-16.7,2.4C329.9,256.9,330.2,260.6,330.2,264.3z"/>
	<path class="st2" d="M138.1,264.3c0-43.5,43-78.8,96-78.8c36.6,0,68.4,16.8,84.6,41.4c5.7-1.3,11.5-2.2,17.4-2.9
		c-18.2-31.5-57.3-53.3-102.6-53.3c-62.7,0-113.5,41.7-113.5,93.1c0,47.5,43.4,86.7,99.4,92.4c-1.1-4.7-1.8-9.5-2.1-14.4
		C172.3,335.3,138.1,303.1,138.1,264.3z"/>
	<path class="st3" d="M354.4,223.1c-6.2,0-12.3,0.3-18.3,1c4.8,8.3,8.1,17.3,9.8,26.8c3.2-0.2,6.4-0.4,9.7-0.4
		c57.2,0,103.6,38.1,103.6,85s-46.4,85-103.6,85c-48.9,0-89.8-27.8-100.7-65.1c-6.9,1.1-14.1,1.7-21.4,1.7c-4.8,0-9.5-0.2-14.1-0.7
		c11.8,52.4,67.8,92.1,135.1,92.1c75.9,0,137.3-50.4,137.3-112.6S430.3,223.1,354.4,223.1z"/>
	<path class="st3" d="M329.2,253.3c-1.6-9.4-5.2-18.3-10.5-26.3c-58.5,12.9-101.6,56.7-101.6,108.8c0,2.1,0.1,4.1,0.2,6.1
		c5.5,0.8,11.1,1.2,16.8,1.2c6.2,0,12.3-0.5,18.2-1.4c-0.2-2-0.3-4.1-0.3-6.2C252.1,296,284.8,262.9,329.2,253.3z"/>
	<path class="st2" d="M329.2,253.3c5.4-1.2,11-2,16.7-2.4c-1.6-9.4-5-18.4-9.8-26.8c-5.9,0.6-11.8,1.6-17.4,2.9
		C324,235,327.6,243.9,329.2,253.3z"/>
	<path class="st3" d="M254.9,355.4c-1.3-4.4-2.2-9-2.6-13.7c-5.9,0.9-12,1.4-18.2,1.4c-5.7,0-11.4-0.4-16.8-1.2
		c0.3,4.9,1,9.7,2.1,14.4c4.6,0.5,9.3,0.7,14.1,0.7C240.8,357,248,356.5,254.9,355.4z"/>
</g>
<polygon class="st4" points="241.5,183.2 299.7,129.7 276.5,97.1 202,97.1 178.7,127.3 232.2,185.5 239.2,185.5 "/>
<line class="st5" x1="181" y1="127.3" x2="297.4" y2="127.3"/>
<polyline class="st5" points="199.1,100.8 217.8,127.3 239.2,99.4 256.6,127.3 276.5,101.7 "/>
<polyline class="st5" points="218.3,129.7 236.9,182 257.8,129.7 "/>
</svg>
