<?xml version="1.0" encoding="utf-8"?>
<!-- Generator: Adobe Illustrator 21.1.0, SVG Export Plug-In . SVG Version: 6.00 Build 0)  -->
<svg version="1.1" id="Layer_1" xmlns="http://www.w3.org/2000/svg" xmlns:xlink="http://www.w3.org/1999/xlink" x="0px" y="0px"
	 viewBox="0 0 600 600" style="enable-background:new 0 0 600 600;" xml:space="preserve">
<style type="text/css">
	.st0{fill:#4E87A4;}
	.st1{fill:#BCBCBC;}
	.st2{fill:#FFDA00;}
	.st3{fill:#FFF80B;stroke:#000000;stroke-width:0.1;stroke-miterlimit:10;}
	.st4{fill:none;stroke:#000000;stroke-width:0.1;stroke-miterlimit:10;}
</style>
<rect x="0.4" class="st0" width="599.2" height="600"/>
<path class="st1" d="M194.5,158.5c-79.5,0-143.9,54-143.9,120.7S115,399.9,194.5,399.9s143.9-54,143.9-120.7
	S273.9,158.5,194.5,158.5z M194.5,381.3c-67.2,0-121.7-45.7-121.7-102.1c0-56.4,54.5-102.1,121.7-102.1s121.7,45.7,121.7,102.1
	C316.2,335.6,261.7,381.3,194.5,381.3z"/>
<path class="st2" d="M382.8,194.6c-96.1,0-174,65.4-174,146.1s77.9,146.1,174,146.1s174-65.4,174-146.1S478.9,194.6,382.8,194.6z
	 M382.8,450.9c-72.5,0-131.3-49.3-131.3-110.2c0-60.9,58.8-110.2,131.3-110.2s131.3,49.3,131.3,110.2
	C514.1,401.5,455.3,450.9,382.8,450.9z"/>
<g>
	<path class="st1" d="M310.5,248.7c6.3-3.5,13-6.5,20-9.1c-4.8-11.5-11.6-22.3-20.1-31.9c-6.9,2.6-13.5,5.6-19.9,9
		C299.3,226.2,306.1,237,310.5,248.7z"/>
</g>
<polygon class="st3" points="204.4,174.2 278.2,104.8 248.7,62.5 154.3,62.5 124.8,101.7 192.6,177.2 201.5,177.2 "/>
<line class="st4" x1="127.7" y1="106.2" x2="275.2" y2="106.2"/>
<polyline class="st4" points="150.6,71.9 174.3,106.2 201.5,70 223.5,106.2 248.7,73 "/>
<polyline class="st4" points="174.9,109.3 198.5,177.2 225.1,109.3 "/>
</svg>
