<?xml version="1.0" encoding="utf-8"?>
<!-- Generator: Adobe Illustrator 21.1.0, SVG Export Plug-In . SVG Version: 6.00 Build 0)  -->
<svg version="1.1" id="Layer_1" xmlns="http://www.w3.org/2000/svg" xmlns:xlink="http://www.w3.org/1999/xlink" x="0px" y="0px"
	 viewBox="0 0 600 600" style="enable-background:new 0 0 600 600;" xml:space="preserve">
<style type="text/css">
	.st0{fill:#4E87A4;}
	.st1{fill:#D2602D;}
	.st2{fill:#FFFFFF;}
</style>
<rect class="st0" width="600" height="600"/>
<g>
	<path class="st1" d="M600.2,279.8"/>
	<g>
		<path class="st2" d="M375.8,385.5c0,6-4.8,10.8-10.8,10.8h-85.4c-6,0-10.8-4.8-10.8-10.8v-21.1c0-6,4.8-10.8,10.8-10.8H365
			c6,0,10.8,4.8,10.8,10.8V385.5z"/>
		<path class="st2" d="M395.1,393.1c0,6-4.8,10.8-10.8,10.8H260.7c-6,0-10.8-4.8-10.8-10.8v-11.2c0-6,4.8-10.8,10.8-10.8h123.6
			c6,0,10.8,4.8,10.8,10.8V393.1z"/>
		<g>
			
				<rect x="266.1" y="207.3" transform="matrix(0.8242 -0.5663 0.5663 0.8242 -80.4986 210.199)" class="st2" width="64.4" height="54.8"/>
			<path class="st2" d="M248.9,224.5c-4.9,3.4-11.6,2.1-15-2.8l-7.2-10.5c-3.4-4.9-2.1-11.6,2.8-15l56.3-38.7
				c4.9-3.4,11.6-2.1,15,2.8l7.2,10.5c3.4,4.9,2.1,11.6-2.8,15L248.9,224.5z"/>
			<path class="st2" d="M310.7,314.4c-4.9,3.4-11.6,2.1-15-2.8l-7.2-10.5c-3.4-4.9-2.1-11.6,2.8-15l56.3-38.7
				c4.9-3.4,11.6-2.1,15,2.8l7.2,10.5c3.4,4.9,2.1,11.6-2.8,15L310.7,314.4z"/>
			<path class="st2" d="M255.4,248.2l-85.6,50.1c-8.2,5.6-10.3,16.8-4.6,25l2.7,4c5.6,8.2,16.8,10.3,25,4.6l77.4-61.9L255.4,248.2z"
				/>
		</g>
	</g>
</g>
</svg>
