<?xml version="1.0" encoding="utf-8"?>
<!-- Generator: Adobe Illustrator 22.0.1, SVG Export Plug-In . SVG Version: 6.00 Build 0)  -->
<svg version="1.1" id="Layer_1" xmlns="http://www.w3.org/2000/svg" xmlns:xlink="http://www.w3.org/1999/xlink" x="0px" y="0px"
	 viewBox="0 0 600 600" style="enable-background:new 0 0 600 600;" xml:space="preserve">
<style type="text/css">
	.st0{fill:#4E87A4;}
	.st1{fill-rule:evenodd;clip-rule:evenodd;fill:#995503;}
	.st2{fill-rule:evenodd;clip-rule:evenodd;fill:#8B4801;}
	.st3{fill-rule:evenodd;clip-rule:evenodd;fill:#B2D8DE;}
	.st4{fill-rule:evenodd;clip-rule:evenodd;fill:#E0AC7E;}
	.st5{fill-rule:evenodd;clip-rule:evenodd;fill:#F2C196;}
	.st6{fill-rule:evenodd;clip-rule:evenodd;fill:#EBB688;}
	.st7{fill-rule:evenodd;clip-rule:evenodd;fill:#FF3705;}
	.st8{fill-rule:evenodd;clip-rule:evenodd;fill:#FF5527;}
	.st9{fill-rule:evenodd;clip-rule:evenodd;fill:#F0FAFC;}
	.st10{fill-rule:evenodd;clip-rule:evenodd;fill:#096385;}
	.st11{fill-rule:evenodd;clip-rule:evenodd;fill:#08426A;}
	.st12{fill-rule:evenodd;clip-rule:evenodd;fill:#0174A3;}
	.st13{fill-rule:evenodd;clip-rule:evenodd;fill:#0B5975;}
	.st14{fill-rule:evenodd;clip-rule:evenodd;fill:#0A6D94;}
	.st15{fill-rule:evenodd;clip-rule:evenodd;fill:#4A250A;}
	.st16{fill-rule:evenodd;clip-rule:evenodd;fill:#92D3E0;}
</style>
<rect class="st0" width="600" height="600"/>
<path class="st1" d="M342.4,191c1.5-19.3,8-39.5,3.3-57.5c-11-25.6-62.8-37.7-87.7-33.1c-15.6,26.2-9.1,58.5-6.3,88.3L342.4,191z"/>
<path class="st2" d="M296.8,189.8v-87.1c21.3,5,42.4,15.4,48.9,30.7c4.7,17.9-1.8,38.2-3.3,57.5L296.8,189.8z"/>
<path class="st3" d="M296,372.1c13.8,0.2,27.3-0.4,40.6-1.8V247.7l-4.6-2c-10-4.4-22.5-9.4-36.1-11.3V372.1z"/>
<path class="st3" d="M296,372.1c-13.8,0.2-27.3-0.4-40.6-1.8V247.7l4.6-2c10-4.4,22.5-9.4,36.1-11.3V372.1z"/>
<path class="st4" d="M267,210.3h58v35c-19.3,15.4-38.7,16-58,0V210.3z"/>
<path class="st5" d="M272.1,138.4c-8.2-1.6-16.1,6.8-17.6,15c-1.4,7.6-2.3,15.3-2.7,23.1c-0.2,0,1-0.1-0.7-0.1
	c-1.7,0-7.1,1.2-6.8,8.4c0.2,5.4,4.9,21,11,18.5c8.9,23.9,20.9,37.4,40.6,42.1c0.3-0.6,0.5-0.1,0.8-0.3V140.9
	C288.8,140.9,280.9,140.1,272.1,138.4z"/>
<path class="st6" d="M320.7,138.4c8.2-1.6,16.1,6.8,17.6,15c1.4,7.6,2.3,15.3,2.7,23.1c0.2,0-1-0.1,0.7-0.1c1.7,0,7.1,1.2,6.8,8.4
	c-0.2,5.4-4.9,21-11,18.5c-9,24.2-21.2,37.5-41.3,42.1V140.9C303.9,140.9,311.8,140.1,320.7,138.4z"/>
<polygon class="st7" points="296,257 305.9,257 301.7,272.8 296,272.8 296,272.8 290.3,272.8 286,257 "/>
<polygon class="st8" points="301.7,272.3 305.8,331.9 296,349.8 286.2,331.9 290.3,272.3 "/>
<path class="st9" d="M296,257l-17,16.6l-19.1-27.9l7.1-3.8C274.1,249.4,283.9,254.2,296,257z"/>
<path class="st10" d="M296,348.2l-41.8-100c-37.8,16.3-62,28.8-66.3,76.7c17.2,30.6,58.1,55.7,108.1,55.6V348.2z"/>
<path class="st11" d="M222,359.7c1.5,1.1,3.2,1.9,4.8,2.9l-0.1-19.8L222,359.7z"/>
<polygon class="st12" points="296,348.2 296,373.4 256.6,303 268.3,288.8 250.5,282.8 242.5,253.3 261.9,244.8 "/>
<path class="st9" d="M296,257l17,16.6l19.1-27.9l-7.1-3.8C317.9,249.4,308.1,254.2,296,257z"/>
<path class="st13" d="M296,348.2l41.8-100c37.8,16.3,62,28.8,66.3,76.7c-17.2,30.6-58.1,55.7-108.1,55.6V348.2z"/>
<path class="st11" d="M369.9,359.7c-1.5,1.1-3.2,1.9-4.8,2.9l0.1-19.8L369.9,359.7z"/>
<polygon class="st14" points="296,348.2 296,373.4 335.3,303 323.6,288.8 341.4,282.8 349.5,253.3 330.7,245 "/>
<polyline class="st2" points="411.5,502.8 411.5,342.2 180.4,342.2 180.4,502.8 "/>
<rect x="206.3" y="368.3" class="st1" width="179.3" height="107"/>
<rect x="167.4" y="310.8" class="st1" width="257.1" height="32.5"/>
<rect x="293.8" y="286.3" class="st15" width="5.9" height="24.5"/>
<path class="st15" d="M296.8,275.2L296.8,275.2c5.4,0,9.8,4.4,9.8,9.8v1.7c0,5.4-4.4,9.8-9.8,9.8h0c-5.4,0-9.8-4.4-9.8-9.8V285
	C287,279.6,291.4,275.2,296.8,275.2z"/>
<path class="st16" d="M549.4,153.3c0-32.7-39.4-59.3-87.9-59.3c-48.5,0-87.9,26.5-87.9,59.3c0,11,4.5,21.3,12.2,30.2l-27.4,45.2
	l49.3-28.5c14.9,7.8,33.5,12.4,53.8,12.4C510.1,212.5,549.4,186,549.4,153.3"/>
<path class="st9" d="M428.2,166c3.9,0,7.2-3.2,7.2-7.2c0-3.9-3.2-7.2-7.2-7.2c-3.9,0-7.2,3.2-7.2,7.2C421,162.8,424.2,166,428.2,166
	z"/>
<path class="st9" d="M458.6,166c3.9,0,7.2-3.2,7.2-7.2c0-3.9-3.2-7.2-7.2-7.2c-3.9,0-7.2,3.2-7.2,7.2
	C451.4,162.8,454.6,166,458.6,166z"/>
<path class="st9" d="M489,166c3.9,0,7.2-3.2,7.2-7.2c0-3.9-3.2-7.2-7.2-7.2c-3.9,0-7.2,3.2-7.2,7.2C481.8,162.8,485.1,166,489,166z"
	/>
</svg>
