<?xml version="1.0" encoding="utf-8"?>
<!-- Generator: Adobe Illustrator 22.0.1, SVG Export Plug-In . SVG Version: 6.00 Build 0)  -->
<svg version="1.1" id="Layer_1" xmlns="http://www.w3.org/2000/svg" xmlns:xlink="http://www.w3.org/1999/xlink" x="0px" y="0px"
	 viewBox="0 0 600 600" style="enable-background:new 0 0 600 600;" xml:space="preserve">
<style type="text/css">
	.st0{fill:#4E87A4;}
	.st1{fill-rule:evenodd;clip-rule:evenodd;fill:#995503;}
	.st2{fill-rule:evenodd;clip-rule:evenodd;fill:#8B4801;}
	.st3{fill-rule:evenodd;clip-rule:evenodd;fill:#B2D8DE;}
	.st4{fill-rule:evenodd;clip-rule:evenodd;fill:#E0AC7E;}
	.st5{fill-rule:evenodd;clip-rule:evenodd;fill:#F2C196;}
	.st6{fill-rule:evenodd;clip-rule:evenodd;fill:#EBB688;}
	.st7{fill-rule:evenodd;clip-rule:evenodd;fill:#FF3705;}
	.st8{fill-rule:evenodd;clip-rule:evenodd;fill:#FF5527;}
	.st9{fill-rule:evenodd;clip-rule:evenodd;fill:#F0FAFC;}
	.st10{fill-rule:evenodd;clip-rule:evenodd;fill:#096385;}
	.st11{fill-rule:evenodd;clip-rule:evenodd;fill:#08426A;}
	.st12{fill-rule:evenodd;clip-rule:evenodd;fill:#0174A3;}
	.st13{fill-rule:evenodd;clip-rule:evenodd;fill:#0B5975;}
	.st14{fill-rule:evenodd;clip-rule:evenodd;fill:#0A6D94;}
	.st15{fill:#FF5527;}
</style>
<rect x="1" class="st0" width="600" height="600"/>
<g>
	<g>
		<path class="st1" d="M363,218.9c1.6-20.9,8.7-42.7,3.6-62.1c-11.9-27.7-67.8-40.7-94.7-35.8c-16.8,28.3-9.9,63.2-6.8,95.5
			L363,218.9z"/>
		<path class="st2" d="M313.8,217.7v-94.1c23,5.4,45.8,16.7,52.9,33.2c5.1,19.4-2,41.2-3.6,62.1L313.8,217.7z"/>
		<path class="st3" d="M312.9,414.6c14.9,0.2,29.5-0.4,43.9-1.9V280.2l-4.9-2.2c-10.9-4.7-24.3-10.2-39-12.2V414.6z"/>
		<path class="st3" d="M312.9,414.6c-14.9,0.2-29.5-0.4-43.9-1.9V280.2l4.9-2.2c10.9-4.7,24.3-10.2,39-12.2V414.6z"/>
		<path class="st4" d="M281.5,239.8h62.7v37.8c-20.9,16.6-41.8,17.3-62.7,0V239.8z"/>
		<path class="st5" d="M287.1,162.1c-8.9-1.7-17.4,7.3-19,16.3c-1.5,8.2-2.5,16.5-2.9,24.9c-0.2,0,1.1-0.1-0.7-0.1
			c-1.8,0-7.6,1.3-7.4,9.1c0.2,5.8,5.3,22.7,11.9,20c9.6,25.8,22.6,40.4,43.8,45.5c0.4-0.7,0.5-0.2,0.9-0.4V164.8
			C305.2,164.8,296.6,164,287.1,162.1z"/>
		<path class="st6" d="M339.6,162.1c8.9-1.7,17.4,7.3,19,16.3c1.5,8.2,2.5,16.5,2.9,24.9c0.2,0-1.1-0.1,0.7-0.1
			c1.8,0,7.6,1.3,7.3,9.1c-0.2,5.8-5.3,22.7-11.9,20c-9.8,26.2-22.9,40.6-44.7,45.5v-113C321.5,164.8,330,164,339.6,162.1z"/>
		<polygon class="st7" points="312.9,290.3 323.6,290.3 319.1,307.3 312.9,307.3 312.9,307.3 306.7,307.3 302.2,290.3 		"/>
		<polygon class="st8" points="319.1,306.8 323.5,371.2 312.9,390.5 302.3,371.2 306.7,306.8 		"/>
		<path class="st9" d="M312.9,290.3l-18.4,17.9L273.9,278l7.6-4.2C289.2,282,299.8,287.2,312.9,290.3z"/>
		<path class="st10" d="M312.9,388.7l-45.2-108c-40.8,17.6-67,31.2-71.6,82.9c18.5,33.1,62.8,60.2,116.8,60.1V388.7z"/>
		<path class="st11" d="M233,401.2c1.6,1.1,3.5,2.1,5.2,3.1l-0.1-21.4L233,401.2z"/>
		<polygon class="st12" points="312.9,388.7 312.9,416 270.4,339.9 283,324.6 263.8,318.2 255.1,286.3 276.1,277.1 		"/>
		<path class="st9" d="M312.9,290.3l18.4,17.9l20.6-30.2l-7.6-4.2C336.5,282,326,287.2,312.9,290.3z"/>
		<path class="st13" d="M312.9,388.7l45.2-108c40.8,17.6,67,31.2,71.6,82.9c-18.5,33.1-62.8,60.2-116.8,60.1V388.7z"/>
		<path class="st11" d="M392.8,401.2c-1.6,1.1-3.5,2.1-5.2,3.1l0.1-21.4L392.8,401.2z"/>
		<polygon class="st14" points="312.9,388.7 312.9,416 355.4,339.9 342.8,324.6 362,318.2 370.7,286.3 350.4,277.2 		"/>
		<rect x="186.7" y="320.3" class="st3" width="245" height="124.5"/>
		<path class="st4" d="M442.6,402c-0.8,0.2-1.6,0.3-2.5,0.4h-24.4c-3.6,0-4.5-4.3-3.4-6.3l9.3,0c1.9,0,1.5-1.9,0-1.9h-11.4
			c-2.8-0.2-3.5-6.3-0.6-7l11.6-0.2c1.7-0.1,1.4-2,0-1.9h-12.2c-2.6-0.2-3.2-7.2,0.1-8h12.7c1.9-0.2,1.7-1.9-0.2-1.9h-11.2
			c-1.7-1.9-1.1-7.2,4.7-8l15.4-0.2c-2.5-5.2-2.7-9.2-0.7-14.3c2.1-4.5,7.2-3,8,0.8c1,4.2-1.1,6.3,1,9.1c1.1,0.4,2.4,1,3.8,1.7
			C445.9,376.6,445.5,389.2,442.6,402z"/>
		<path class="st4" d="M175.1,405.5c0.8,0.2,1.6,0.3,2.5,0.4H202c3.6,0,4.5-4.3,3.4-6.3l-9.3,0c-1.9,0-1.5-1.9,0-1.9h11.4
			c2.8-0.2,3.5-6.3,0.6-7l-11.6-0.2c-1.7-0.1-1.4-2,0-1.9h12.2c2.7-0.2,3.2-7.2-0.1-8h-12.7c-1.9-0.2-1.7-1.9,0.2-1.9h11.2
			c1.7-1.9,1.1-7.2-4.7-8l-15.4-0.2c2.5-5.2,2.7-9.2,0.7-14.3c-2.1-4.5-7.2-3-8,0.8c-1,4.2,1.1,6.3-1,9.1c-1.1,0.4-2.4,1-3.8,1.7
			C171.8,380.1,172.3,392.7,175.1,405.5z"/>
		<g>
			<path class="st15" d="M247.2,398.1c0,3.6-1.2,6.6-3.7,9.1c-2.5,2.5-5.5,3.8-9,3.8h-12.8v-53.9h12.8c3.6,0,6.6,1.3,9.1,3.8
				c2.5,2.5,3.7,5.5,3.7,9.1V398.1z M229.8,402.9h4.9c1.3,0,2.4-0.5,3.3-1.4c0.9-0.9,1.3-2,1.3-3.3V370c0-1.3-0.4-2.4-1.4-3.3
				c-0.9-0.9-2-1.4-3.2-1.4h-4.9V402.9z"/>
			<path class="st15" d="M254.3,411v-53.9h23.1v8.2h-15v14.7h11v8.2h-11v14.7h15v8.2H254.3z"/>
			<path class="st15" d="M283.1,411v-53.9h12.2c3.2,0,6.1,0.8,8.7,2.5c2.2,1.4,3.8,3.7,4.7,6.7c0.5,1.6,0.8,3.5,0.8,5.7
				c0,3.6-1,6.5-2.9,8.7c-0.8,0.9-1.7,1.6-2.8,2.1c1.8,0.7,3.3,2.1,4.6,4.1c0.8,1.4,1.4,3.2,1.8,5.3c0.2,1.1,0.3,2.4,0.3,3.7
				c0,3.4-0.6,6.3-1.9,8.7c-1,1.9-2.4,3.4-4.3,4.5c-2.1,1.3-4.1,1.9-6.2,1.9H283.1z M291.8,379.1h3.4c2.5,0,4.2-1.2,5.1-3.7
				c0.3-0.9,0.5-2.1,0.5-3.4c0-2.2-0.5-3.9-1.6-5.1c-1-1.1-2.3-1.6-3.9-1.6h-3.4V379.1z M291.8,402.9h3.4c2.8,0,4.7-1.4,5.7-4.3
				c0.4-1,0.6-2.1,0.6-3.4c0-3-0.6-5.2-1.7-6.6c-1-1.3-2.6-1.9-4.6-1.9h-3.4V402.9z"/>
			<path class="st15" d="M326.5,398.6l-2,12.4h-8.5l9.2-53.9h11.2l9,53.9h-8.5l-1.9-12.4H326.5z M330.8,369.4l-3,21.2h6L330.8,369.4
				z"/>
			<path class="st15" d="M353.3,365.3h-8.6v-8.2H370v8.2h-8.6V411h-8.1V365.3z"/>
			<path class="st15" d="M376.6,411v-53.9h23.1v8.2h-15v14.7h11v8.2h-11v14.7h15v8.2H376.6z"/>
		</g>
	</g>
</g>
</svg>
