<?xml version="1.0" encoding="utf-8"?>
<!-- Generator: Adobe Illustrator 21.1.0, SVG Export Plug-In . SVG Version: 6.00 Build 0)  -->
<svg version="1.1" id="Layer_1" xmlns="http://www.w3.org/2000/svg" xmlns:xlink="http://www.w3.org/1999/xlink" x="0px" y="0px"
	 viewBox="0 0 600 600" style="enable-background:new 0 0 600 600;" xml:space="preserve">
<style type="text/css">
	.st0{fill:#4E87A4;}
	.st1{fill:none;stroke:#000000;stroke-miterlimit:10;}
	.st2{fill:#BCBCBC;}
	.st3{fill:#FFF80B;stroke:#000000;stroke-width:0.1;stroke-miterlimit:10;}
	.st4{fill:none;stroke:#000000;stroke-width:0.1;stroke-miterlimit:10;}
	.st5{fill:#FFDA00;stroke:#FFDA00;stroke-miterlimit:10;}
</style>
<rect class="st0" width="599.2" height="600"/>
<ellipse class="st1" cx="224.6" cy="275.1" rx="110.6" ry="92.8"/>
<ellipse class="st2" cx="220.2" cy="274.3" rx="143.9" ry="120.7"/>
<polygon class="st3" points="226.1,186.8 299.9,117.4 270.4,75.1 176,75.1 146.5,114.3 214.3,189.8 223.2,189.8 "/>
<line class="st4" x1="149.4" y1="114.3" x2="296.9" y2="114.3"/>
<polyline class="st4" points="172.3,80 196,114.3 223.2,78.1 245.2,114.3 270.4,81.1 "/>
<polyline class="st4" points="196.6,117.4 220.2,185.3 246.8,117.4 "/>
<ellipse class="st0" cx="220.9" cy="274.8" rx="121.7" ry="102.1"/>
<ellipse class="st1" cx="375.1" cy="330.2" rx="131.3" ry="110.2"/>
<ellipse class="st5" cx="376.6" cy="333.5" rx="174" ry="146.1"/>
<ellipse class="st0" cx="378" cy="333.2" rx="131.3" ry="110.2"/>
<g>
	<path class="st2" d="M348.9,222c-0.6-1.1-1.2-2.1-1.7-3.2c-5.9-10.4-13.5-19.9-22.6-28.3c-7.6,1.9-15,4.3-22.2,7
		c9.5,7.6,17.6,16.5,23.8,26.4c0.7,1.1,1.3,2.2,2,3.3c7.6,13.3,11.9,28.3,11.9,44c0,45.9-36.2,84.7-85.8,97.2c0,0,0,0,0,0
		c5.6,10.1,9.2,16.2,9.3,16.2c56.7-15.6,97.7-60.7,97.7-113.8C361.1,253.3,356.7,236.8,348.9,222z"/>
</g>
</svg>
