<?xml version="1.0" encoding="utf-8"?>
<!-- Generator: Adobe Illustrator 22.0.1, SVG Export Plug-In . SVG Version: 6.00 Build 0)  -->
<svg version="1.1" id="Layer_1" xmlns="http://www.w3.org/2000/svg" xmlns:xlink="http://www.w3.org/1999/xlink" x="0px" y="0px"
	 viewBox="0 0 600 600" style="enable-background:new 0 0 600 600;" xml:space="preserve">
<style type="text/css">
	.st0{fill:#4E87A4;}
	.st1{fill-rule:evenodd;clip-rule:evenodd;fill:#995503;}
	.st2{fill-rule:evenodd;clip-rule:evenodd;fill:#8B4801;}
	.st3{fill-rule:evenodd;clip-rule:evenodd;fill:#B2D8DE;}
	.st4{fill-rule:evenodd;clip-rule:evenodd;fill:#E0AC7E;}
	.st5{fill-rule:evenodd;clip-rule:evenodd;fill:#F2C196;}
	.st6{fill-rule:evenodd;clip-rule:evenodd;fill:#EBB688;}
	.st7{fill-rule:evenodd;clip-rule:evenodd;fill:#FF3705;}
	.st8{fill-rule:evenodd;clip-rule:evenodd;fill:#FF5527;}
	.st9{fill-rule:evenodd;clip-rule:evenodd;fill:#F0FAFC;}
	.st10{fill-rule:evenodd;clip-rule:evenodd;fill:#096385;}
	.st11{fill-rule:evenodd;clip-rule:evenodd;fill:#08426A;}
	.st12{fill-rule:evenodd;clip-rule:evenodd;fill:#0174A3;}
	.st13{fill-rule:evenodd;clip-rule:evenodd;fill:#0B5975;}
	.st14{fill-rule:evenodd;clip-rule:evenodd;fill:#0A6D94;}
</style>
<rect class="st0" width="600" height="600"/>
<path class="st1" d="M253.6,133.1c-18.9,31.8-11.1,70.9-7.6,107.1l109.9,2.7c1.8-23.4,9.7-47.9,4-69.7
	C346.7,142.3,283.8,127.6,253.6,133.1"/>
<path class="st2" d="M300.7,136.1c25.8,6,51.4,18.7,59.3,37.3c5.7,21.7-2.2,46.3-4,69.7l-55.3-1.4V136.1"/>
<path class="st3" d="M299.7,462.6c16.7,0.2,33.1-0.5,49.3-2.2V311.8l-5.5-2.4c-12.2-5.3-27.3-11.5-43.7-13.7V462.6z"/>
<path class="st3" d="M299.7,462.6c-16.7,0.2-33.1-0.5-49.3-2.2V311.8l5.5-2.4c12.2-5.3,27.3-11.5,43.7-13.7V462.6z"/>
<path class="st4" d="M264.5,266.4h70.4v42.4c-23.5,18.6-46.9,19.4-70.4,0V266.4z"/>
<path class="st5" d="M270.7,179.2c-10-1.9-19.5,8.2-21.3,18.2c-1.6,9.2-2.8,18.6-3.2,28c-0.3,0,1.2-0.1-0.8-0.1
	c-2,0-8.6,1.5-8.2,10.2c0.2,6.5,5.9,25.5,13.4,22.4c10.8,29,25.4,45.3,49.2,51.1c0.4-0.8,0.6-0.2,1-0.4V182.3
	C291,182.3,281.4,181.3,270.7,179.2z"/>
<path class="st6" d="M329.6,179.2c10-1.9,19.5,8.2,21.3,18.2c1.6,9.2,2.8,18.6,3.2,28c0.3,0-1.2-0.1,0.8-0.1c2,0,8.6,1.5,8.3,10.2
	c-0.2,6.5-5.9,25.5-13.4,22.4c-11,29.4-25.7,45.5-50.1,51.1V182.3C309.3,182.3,318.9,181.3,329.6,179.2z"/>
<polygon class="st7" points="299.7,323.1 311.7,323.1 306.6,342.2 299.7,342.2 299.7,342.2 292.8,342.2 287.7,323.1 "/>
<polygon class="st8" points="306.6,341.6 311.6,413.9 299.7,435.5 287.8,413.9 292.8,341.6 "/>
<path class="st9" d="M299.7,323.1L279,343.2l-23.1-33.8l8.6-4.7C273.2,313.8,285,319.6,299.7,323.1z"/>
<path class="st10" d="M299.7,433.6L249,312.4c-45.8,19.8-75.2,35-80.4,93c20.8,37.1,70.5,67.5,131,67.5V433.6z"/>
<path class="st11" d="M210.1,447.6c1.8,1.3,3.9,2.3,5.8,3.5l-0.1-24L210.1,447.6z"/>
<polygon class="st12" points="299.7,433.6 299.7,464.2 252,378.8 266.2,361.6 244.6,354.4 234.8,318.6 258.4,308.3 "/>
<path class="st9" d="M299.7,323.1l20.6,20.1l23.1-33.8l-8.6-4.7C326.2,313.8,314.4,319.6,299.7,323.1z"/>
<path class="st13" d="M299.7,433.6l50.7-121.2c45.8,19.8,75.2,35,80.4,93c-20.8,37.1-70.5,67.5-131,67.5V433.6z"/>
<path class="st11" d="M389.3,447.6c-1.8,1.3-3.9,2.3-5.8,3.5l0.1-24L389.3,447.6z"/>
<polygon class="st14" points="299.7,433.6 299.7,464.2 347.4,378.8 333.2,361.6 354.8,354.4 364.6,318.6 341.8,308.5 "/>
<path class="st8" d="M399.8,200.5c10.6-2.1,20.7,8.7,22.6,19.3c5.2,29,3,46.4-1.2,64.1c-11.6,31.1-27.3,48.2-53.1,54.1
	c-25.9-5.9-41.5-23-53.1-54.1c-4.1-17.7-6.3-35.2-1.2-64.1c1.9-10.6,12-21.4,22.6-19.3c11.4,2.2,21.5,3.3,31.7,3.2
	C378.3,203.8,388.5,202.8,399.8,200.5L399.8,200.5z M368.1,310.3c12.3-0.1,24.5-5.8,24.5-16.4c-8.1,2-16.2,2.9-24.5,2.9
	c-8.1,0-16.2-1-24.5-2.9C343.8,305.1,356,310.4,368.1,310.3L368.1,310.3z M355.8,254.3c0.1-15.6-30.9-16.7-31.1,0
	C335.2,251.5,345.6,251.4,355.8,254.3L355.8,254.3z M411.5,254.3c0.1-15.6-30.9-16.7-31.1,0C391,251.5,401.3,251.4,411.5,254.3z"/>
</svg>
