<?xml version="1.0" encoding="utf-8"?>
<!-- Generator: Adobe Illustrator 22.0.1, SVG Export Plug-In . SVG Version: 6.00 Build 0)  -->
<svg version="1.1" id="Layer_1" xmlns="http://www.w3.org/2000/svg" xmlns:xlink="http://www.w3.org/1999/xlink" x="0px" y="0px"
	 viewBox="0 0 600 600" style="enable-background:new 0 0 600 600;" xml:space="preserve">
<style type="text/css">
	.st0{fill:#4E87A4;}
	.st1{fill-rule:evenodd;clip-rule:evenodd;fill:#8B4801;}
	.st2{fill-rule:evenodd;clip-rule:evenodd;fill:#EBB688;}
	.st3{fill-rule:evenodd;clip-rule:evenodd;fill:#F2C196;}
	.st4{fill-rule:evenodd;clip-rule:evenodd;fill:#4A250A;}
	.st5{fill-rule:evenodd;clip-rule:evenodd;fill:#6E4823;}
	.st6{fill-rule:evenodd;clip-rule:evenodd;fill:#08426A;}
	.st7{fill-rule:evenodd;clip-rule:evenodd;fill:#EE3330;}
	.st8{fill-rule:evenodd;clip-rule:evenodd;fill:#995503;}
	.st9{fill-rule:evenodd;clip-rule:evenodd;fill:#B2D8DE;}
	.st10{fill-rule:evenodd;clip-rule:evenodd;fill:#E0AC7E;}
	.st11{fill-rule:evenodd;clip-rule:evenodd;fill:#FF3705;}
	.st12{fill-rule:evenodd;clip-rule:evenodd;fill:#FF5527;}
	.st13{fill-rule:evenodd;clip-rule:evenodd;fill:#F0FAFC;}
	.st14{fill-rule:evenodd;clip-rule:evenodd;fill:#096385;}
	.st15{fill-rule:evenodd;clip-rule:evenodd;fill:#0174A3;}
	.st16{fill-rule:evenodd;clip-rule:evenodd;fill:#0B5975;}
	.st17{fill-rule:evenodd;clip-rule:evenodd;fill:#0A6D94;}
	.st18{fill:#FF5527;}
</style>
<rect class="st0" width="600" height="600"/>
<g>
	<rect x="409.2" y="87.2" class="st1" width="8.4" height="96.2"/>
	<path class="st2" d="M392.6,217.9c1.7-1.2,6.3-3.7,7-4.7l0.1,0.1c1.1-3.6,1.8-7.4,2.4-11l1.4-6.1c-1.8-2-1.5-5.1,0.6-9l-3.2-7.3
		c-1.2-2.8,3.6-2.1,5.7-0.7l2.6,3.7c0.5-1.8,0.5-1.5,3-2.3c3.4-0.1,6.3,2.4,10.7,8.3c1.8,1.8,2.6,4.5,3.1,6.9
		c-1.2,10.1,0,5.1-6.7,15.4l-11.9,14.6L392.6,217.9z"/>
	<path class="st3" d="M425.2,189.3l-19-11.7c-3.3,0.3-4.2,3.1-2.2,6.3c-3,0.5-3.8,2.9-2.1,6.3c-2.7,0.3-3.7,3.6-1.9,5.7
		c-2.5,0.4-3,3.6-1,5.4l17.4,10.6C424.7,206.6,427.4,198.9,425.2,189.3z"/>
	<path class="st4" d="M305.7,487.1c-9.7,0-17.6,9.1-17.6,20.3c0,2.7,0.5,5.4,1.3,7.7H322c0.8-2.4,1.3-5,1.3-7.7
		C323.3,496.2,315.5,487.1,305.7,487.1z"/>
	<rect x="288.3" y="511.6" class="st5" width="35" height="3.6"/>
	<path class="st6" d="M267.6,321.1l62.8,2.9c2,58.3-6.9,81.6-7.5,174.4h-34.2c1.2-40.4-1.9-91.8-1.8-130.9c0-5-6.1,1.5-6.7-3.4
		C274.6,353.4,266.4,330.7,267.6,321.1z"/>
	<path class="st3" d="M231.9,329.8c3.5,5.4,3.5,10.3,3.5,16.1l-0.4,7.8c0.1,1.9-2.5,2.2-3.3,0.4c-1.8-3.2-2.2-6.7-2.5-10.3
		c-1.6,2.7-3.5,8.9-3.1,12.1c0.5,4.1,2.6,8.5,4.5,11.6c0.9,2.6-1.6,4.1-5.4,1.4c-5.6-4.1-8.9-8.9-12.3-18.1
		c-1.4-7.6,0.1-18.8,2.8-22.4c1-2.7,0.9-5.3,0.3-7.9l16.5,2.4C231.4,325.4,231.2,327.7,231.9,329.8z"/>
	<path class="st4" d="M266.5,487.1c9.7,0,17.6,9.1,17.6,20.3c0,2.7-0.5,5.4-1.3,7.7h-32.5c-0.9-2.4-1.3-5-1.3-7.7
		C248.9,496.2,256.8,487.1,266.5,487.1z"/>
	<rect x="249" y="511.6" class="st5" width="35" height="3.6"/>
	<path class="st6" d="M304.7,321.1l-62.8,2.9c-2,58.3,6.9,81.6,7.5,174.4h34.2c-1.2-40.4,1.9-91.8,1.8-130.9c0-5,6.1,1.5,6.7-3.4
		C297.6,353.4,305.8,330.7,304.7,321.1z"/>
	<path class="st7" d="M268.5,174.2c12,2.7,22.2,2.6,34.4,0l1.9,6c-11.7,6.3-26.3,6.3-38.7,0.1L268.5,174.2z"/>
	<path class="st8" d="M316.2,144c1-12.7,5.3-25.9,2.2-37.7c-7.2-16.8-41.2-24.7-57.5-21.7c-10.2,17.2-6,38.4-4.1,57.9L316.2,144z"/>
	<path class="st1" d="M286.3,143.3V86.2c13.9,3.3,27.8,10.1,32.1,20.1c3.1,11.8-1.2,25-2.2,37.7L286.3,143.3z"/>
	<path class="st9" d="M285.7,262.8c9,0.1,17.9-0.3,26.6-1.2v-80.4l-3-1.3c-6.6-2.9-14.7-6.2-23.7-7.4V262.8z"/>
	<path class="st9" d="M285.7,262.8c-9,0.1-17.9-0.3-26.7-1.2v-80.4l3-1.3c6.6-2.9,14.7-6.2,23.7-7.4V262.8z"/>
	<path class="st10" d="M266.7,156.7h38.1v23c-12.7,10.1-25.4,10.5-38.1,0V156.7z"/>
	<path class="st3" d="M270.1,109.5c-5.4-1-10.6,4.5-11.5,9.9c-0.9,5-1.5,10-1.7,15.1c-0.1,0,0.6,0-0.4,0c-1.1,0-4.6,0.8-4.5,5.5
		c0.1,3.5,3.2,13.8,7.2,12.1c5.8,15.7,13.7,24.5,26.6,27.6c0.2-0.4,0.3-0.1,0.5-0.2v-68.4C281.1,111.2,275.9,110.7,270.1,109.5z"/>
	<path class="st2" d="M301.9,109.5c5.4-1,10.6,4.5,11.5,9.9c0.9,5,1.5,10,1.7,15.1c0.1,0-0.6,0,0.4,0c1.1,0,4.6,0.8,4.5,5.5
		c-0.1,3.5-3.2,13.8-7.2,12.1c-5.9,15.9-13.9,24.6-27.1,27.6v-68.6C290.9,111.2,296.1,110.7,301.9,109.5z"/>
	<polygon class="st11" points="285.7,187.3 292.2,187.3 289.5,197.7 285.7,197.7 285.7,197.7 282,197.7 279.2,187.3 	"/>
	<polygon class="st12" points="289.5,197.4 292.1,236.4 285.7,248.1 279.3,236.4 282,197.4 	"/>
	<path class="st13" d="M285.7,187.3l-11.2,10.9l-12.5-18.3l4.6-2.5C271.4,182.3,277.8,185.4,285.7,187.3z"/>
	<path class="st14" d="M285.7,247.1l-27.4-65.5c-24.8,10.7-41.4,18.8-44.2,50.1c-2.7,29.9-2.7,62.8-1.3,97.3l22.4-0.3l0.6-63.9
		l4.3,74.8l46.8-0.1L286,264L285.7,247.1z"/>
	<polygon class="st15" points="285.7,247.1 285.7,263.7 259.9,217.5 267.6,208.2 255.9,204.3 250.7,184.9 263.4,179.3 	"/>
	<path class="st13" d="M285.7,187.3l11.2,10.9l12.5-18.3l-4.6-2.5C300.1,182.3,293.7,185.4,285.7,187.3z"/>
	<path class="st16" d="M285.7,247.1l27.4-65.5c14.6,6.3,26.4,11.7,34.2,21.5c5.4,6.8,12,20.6,22.6,33.9l24-25.1l21.8,15.5
		l-48.4,50.1l-32-21.6l-4,83.8l-45.7-0.1V247.1z"/>
	<polygon class="st17" points="285.7,247.1 285.7,263.7 311.5,217.5 303.9,208.2 315.5,204.3 320.8,184.9 308.5,179.4 	"/>
	<path class="st6" d="M291.2,271c1.3,0,2.3,1,2.3,2.3c0,1.3-1,2.3-2.3,2.3s-2.3-1-2.3-2.3C288.9,272,289.9,271,291.2,271z"/>
	<path class="st6" d="M291.2,288.4c1.3,0,2.3,1,2.3,2.3c0,1.3-1,2.3-2.3,2.3c-1.3,0-2.3-1-2.3-2.3
		C288.8,289.4,289.9,288.4,291.2,288.4z"/>
	<path class="st6" d="M291,306c1.3,0,2.3,1,2.3,2.3c0,1.3-1,2.3-2.3,2.3c-1.3,0-2.3-1-2.3-2.3C288.7,307.1,289.7,306,291,306z"/>
	<rect x="342.4" y="96.3" class="st9" width="143.1" height="72.7"/>
	<polygon class="st1" points="409.2,207.5 416.3,211.3 417.6,265.4 409.2,265.4 	"/>
	<g>
		<path class="st18" d="M358.5,149.8h-4.6v-30.5h6.6l4.3,21.9l4.1-21.9h6.3v30.5h-4.6v-19.2l-4,19.2h-3.7l-4.4-19.1V149.8z"/>
		<path class="st18" d="M385.1,137.1l-6.2-17.7h5.1l3.4,10.9l3.4-10.9h5.1l-6.2,17.7v12.8h-4.6V137.1z"/>
		<path class="st18" d="M413.9,149.8l-5.4-30.5h4.8l3.8,23.7l3.9-23.7h4.8l-5.5,30.5H413.9z"/>
		<path class="st18" d="M436.2,119c2,0,3.8,0.7,5.2,2.1c1.4,1.4,2.1,3.1,2.1,5.2v16.6c0,2-0.7,3.8-2.1,5.2c-1.4,1.4-3.1,2.1-5.2,2.1
			c-2,0-3.7-0.7-5.1-2.1c-1.4-1.4-2.1-3.1-2.1-5.2v-16.6c0-2,0.7-3.8,2.1-5.2C432.5,119.7,434.2,119,436.2,119z M438.7,126.2
			c0-0.7-0.3-1.4-0.8-1.9c-0.5-0.5-1.1-0.8-1.9-0.8c-0.7,0-1.4,0.3-1.9,0.8c-0.5,0.5-0.8,1.1-0.8,1.9v16.7c0,0.7,0.3,1.4,0.8,1.9
			c0.5,0.5,1.1,0.8,1.9,0.8c0.7,0,1.4-0.3,1.9-0.8c0.5-0.5,0.8-1.1,0.8-1.9V126.2z"/>
		<path class="st18" d="M451.5,124h-4.9v-4.6H461v4.6h-4.9v25.8h-4.6V124z"/>
		<path class="st18" d="M464.7,149.8v-30.5h13.1v4.6h-8.5v8.3h6.2v4.6h-6.2v8.3h8.5v4.6H464.7z"/>
	</g>
</g>
</svg>
