<?xml version="1.0" encoding="utf-8"?>
<!-- Generator: Adobe Illustrator 21.1.0, SVG Export Plug-In . SVG Version: 6.00 Build 0)  -->
<svg version="1.1" id="Layer_1" xmlns="http://www.w3.org/2000/svg" xmlns:xlink="http://www.w3.org/1999/xlink" x="0px" y="0px"
	 viewBox="0 0 750 1334" style="enable-background:new 0 0 750 1334;" xml:space="preserve">
<style type="text/css">
	.st0{fill:url(#SVGID_1_);stroke:url(#SVGID_2_);stroke-miterlimit:10;}
	.st1{fill:#FF9700;}
	.st2{fill:#80CEF9;}
</style>
<linearGradient id="SVGID_1_" gradientUnits="userSpaceOnUse" x1="375.5" y1="1334.5" x2="375.5" y2="0.5">
	<stop  offset="0" style="stop-color:#00FFF2"/>
	<stop  offset="1" style="stop-color:#966AFF"/>
</linearGradient>
<linearGradient id="SVGID_2_" gradientUnits="userSpaceOnUse" x1="0" y1="667.5" x2="751" y2="667.5">
	<stop  offset="0" style="stop-color:#FFFFFF"/>
	<stop  offset="1" style="stop-color:#000000"/>
</linearGradient>
<rect x="0.5" y="0.5" class="st0" width="750" height="1334"/>
<polygon class="st1" points="218.3,571.8 283,537.8 270.6,609.9 323,660.9 250.6,671.4 218.3,737 185.9,671.4 113.5,660.9 
	165.9,609.9 153.5,537.8 "/>
<polygon class="st1" points="506.5,157.9 588.1,115 572.5,205.8 638.5,270.1 547.3,283.4 506.5,366 465.7,283.4 374.5,270.1 
	440.5,205.8 425,115 "/>
<polygon class="st1" points="605.3,905.2 656.1,878.5 646.4,935.1 687.6,975.2 630.7,983.5 605.3,1035 579.9,983.5 523,975.2 
	564.1,935.1 554.4,878.5 "/>
<polygon class="st1" points="122.2,1150.6 157.7,1132 150.9,1171.4 179.6,1199.4 140,1205.1 122.2,1241 104.5,1205.1 64.9,1199.4 
	93.6,1171.4 86.8,1132 "/>
<g>
	<g>
		<path class="st2" d="M521.6,1285.2c11.3-1.9,19.4,9,22.5,18.5c0.7,2.3,1.9,5.4,1.4,7.9c-0.4,1.8-1.2,3.4-2.4,1.9
			c-2.2-2.7-0.9-10.4,1.3-12.4c3.1-2.7,8-3.4,11.7-4.8c4.9-1.8,9.6-4.6,13-8.5c4.7-5.4,11-22.6-1-23.9
			c-10.5-1.2-13.2,16.9-13.8,24.2c-0.9,10.5,1.6,21.9,7.3,30.8c6.1,9.5,16.3,12.9,25.7,5.5c7.4-5.8,14.3-18,4.9-25.5
			c-4-3.3-10.3-3.4-14.2,0.2c-4.3,3.9-3.7,10.1-1,14.7c5.9,9.8,18.8,15.8,29.4,10.7c7-3.3,0.9-13.7-6.1-10.4
			c-2.9,1.4-6.5-0.6-8.8-2.3c-1.2-0.9-2.4-1.9-3.3-3c-1.1-1.3-1.7-4.2-3.6-0.8c-0.5,0.8-0.3,2.3-1,3.4c-0.9,1.3-2.3,2.5-3.6,3.5
			c-3.3,2.6-5.3,1.7-7.6-1.5c-4-5.5-6-12.9-6.2-19.7c-0.1-3.2,0.1-6.5,0.8-9.6c0.3-1.6,0.8-3.1,1.3-4.7c0.3-1,0.7-2.1,1.2-3.1
			c1.5-2.2,0.6-2.3-2.7-0.5c-1.2-0.9-2.4-1.8-3.6-2.8c1.1,2.5-2.3,6.3-3.9,7.8c-2.5,2.3-5.5,3.7-8.7,4.7c-5.9,2-12.1,3.8-16.2,8.9
			c-6.9,8.7-5.9,29.7,7.6,31.6c6.9,1,13.1-4.1,14.9-10.6c1.9-7-0.6-14.7-3.5-21.1c-6.2-13.9-19.4-23.3-34.9-20.8
			C510.9,1274.8,514.1,1286.4,521.6,1285.2L521.6,1285.2z"/>
	</g>
</g>
<g>
	<g>
		<path class="st2" d="M607.3,1324.1c7.8-8.7,11.9-19.9,10.7-31.6c-0.8-7.5-12.2-7.9-12,0c0.3,10,0.2,20-0.4,29.9
			c-0.4,6.7,10.6,8.3,11.8,1.6c0.8-4.2,0.5-8,0.1-12.3c-0.2-2.1-1-7.5,1.7-8.6c7.4-2.8,6.5,13.6,8.3,16.4c4.1,6.5,13.1,4,15.5-2.5
			c1.4-3.6,1.2-7.9,1.5-11.8c0.4-4.7,0.7-9.4,1.1-14c-4,0-8,0-12,0c0,9.1,0,18.2,0,27.3c0,6.5,10.7,8.5,11.8,1.6
			c0.7-4.7-0.7-9.4,0-14c0.7-4.2,5.9-3.3,9.2-2.9c-1.5-1.9-2.9-3.9-4.4-5.8c-0.4,6.7,1.3,13.8,5.3,19.2c4.2,5.6,11.6,6.4,16.7,1.3
			c4.8-4.8,5.1-13,5.9-19.3c1-8.4,1.3-16.8,0.8-25.2c-0.4-7.7-12.3-7.8-12,0c0.4,12.3,0.8,24.5,1.2,36.8c3.9-0.5,7.9-1.1,11.8-1.6
			c-0.7-4.6-1.4-9.8-0.8-14.5c0.4-4,3.7-4.8,7.2-5.9c-1.9-3.3-3.9-6.7-5.8-10c-2.6,2.1-6.3,2.2-8.9,4.7c-3.3,3.3-3.7,8.1-2.1,12.4
			c3.3,8.8,10.2,16,18.1,20.7c6.6,4,12.7-6.4,6.1-10.4c-5-3-9.1-7.1-11.9-12.3c-1.3-2.5-2.1-1.8,0.6-2.9c2.5-1.1,4.5-2,6.6-3.8
			c4.7-3.8-0.4-11.8-5.8-10c-6,1.9-12.2,4.6-14.7,10.8c-2.9,7.2-1,16.8,0,24.3c1,6.7,12,5.1,11.8-1.6c-0.4-12.3-0.8-24.5-1.2-36.8
			c-4,0-8,0-12,0c0.5,9.1,0.3,18.3-1.1,27.3c-0.3,2-0.6,4-1.1,5.9c-0.2,0.8-0.4,1.6-0.7,2.4c1.3,0.8,1.5,0.7,0.8-0.2
			c-0.1-1.4-1.8-3.6-2.2-5.2c-0.5-2.1-0.5-4.2-0.4-6.3c0.1-2.3-1.9-5.4-4.4-5.8c-6.8-0.9-14.7-1.5-20,3.7c-6.4,6.3-2.8,13.8-4,21.5
			c3.9,0.5,7.9,1.1,11.8,1.6c0-9.1,0-18.2,0-27.3c0-7.8-11.4-7.6-12,0c-0.3,3.7-0.6,7.5-0.9,11.2c-0.1,1.9-0.3,3.7-0.4,5.6
			c0,0.6-0.1,1.2-0.1,1.9c-0.8,2.3,0,2.7,2.5,1.3c1.2,0.9,2.4,1.8,3.6,2.8c-1.2-1.7-0.6-6.4-1.2-8.5c-0.8-3-2.1-5.8-4.1-8.2
			c-3.6-4.4-9.2-6.9-14.8-6.2c-5.7,0.7-10,4.8-11.8,10.2c-2.1,6.5,0.6,12.9-0.6,19.4c3.9,0.5,7.9,1.1,11.8,1.6
			c0.6-10,0.7-19.9,0.4-29.9c-4,0-8,0-12,0c0.9,8.6-1.4,16.7-7.2,23.1C593.7,1321.3,602.1,1329.8,607.3,1324.1L607.3,1324.1z"/>
	</g>
</g>
<g>
	<g>
		<path class="st2" d="M656.4,1291.5c2.2,0.1,4.5-0.7,6-2.2c1.8-1.8,2.6-4.6,1.9-7.1c-1-3.5-4.7-5.5-8.2-4.6c-2.9,0.8-5.1,3.4-5,6.4
			c0,1.6,0.6,3.1,1.8,4.2c1,1,2.7,1.8,4.2,1.8c1.6-0.1,3.2-0.6,4.2-1.8c1.1-1.2,1.8-2.6,1.8-4.2c0,0,0-0.1,0-0.1
			c-0.1,0.5-0.1,1.1-0.2,1.6c0-0.1,0-0.1,0-0.2c-0.2,0.5-0.4,1-0.6,1.4c0,0,0-0.1,0-0.1c-0.3,0.4-0.6,0.8-0.9,1.2
			c0-0.1,0.1-0.1,0.1-0.1c-0.4,0.3-0.8,0.6-1.2,0.9c0.1,0,0.1-0.1,0.2-0.1c-0.5,0.2-1,0.4-1.4,0.6c0.1,0,0.1,0,0.2-0.1
			c-0.5,0.1-1.1,0.1-1.6,0.2c0.1,0,0.1,0,0.2,0c-0.5-0.1-1.1-0.1-1.6-0.2c0.1,0,0.1,0,0.2,0c-0.5-0.2-1-0.4-1.4-0.6
			c0.1,0,0.1,0.1,0.2,0.1c-0.4-0.3-0.8-0.6-1.2-0.9c0,0,0,0,0.1,0.1c-0.3-0.4-0.6-0.8-0.9-1.2c0.1,0.1,0.1,0.1,0.1,0.2
			c-0.2-0.5-0.4-1-0.6-1.4c0,0.1,0.1,0.2,0.1,0.2c-0.1-0.5-0.1-1.1-0.2-1.6c0,0.1,0,0.2,0,0.2c0.1-0.5,0.1-1.1,0.2-1.6
			c0,0.1,0,0.2-0.1,0.4c0.2-0.5,0.4-1,0.6-1.4c-0.1,0.1-0.1,0.2-0.2,0.3c0.3-0.4,0.6-0.8,0.9-1.2c-0.1,0.1-0.1,0.1-0.2,0.2
			c0.4-0.3,0.8-0.6,1.2-0.9c-0.1,0.1-0.3,0.2-0.4,0.2c0.5-0.2,1-0.4,1.4-0.6c-0.2,0.1-0.3,0.1-0.5,0.1c0.5-0.1,1.1-0.1,1.6-0.2
			c-0.3,0-0.5,0-0.8,0c-1.5-0.1-3.2,0.7-4.2,1.8c-1,1-1.8,2.7-1.8,4.2c0.1,1.6,0.6,3.2,1.8,4.2
			C653.4,1290.8,654.8,1291.4,656.4,1291.5L656.4,1291.5z"/>
	</g>
</g>
<g>
	<g>
		<path class="st2" d="M561,1292.7c7.7,0,7.7-12,0-12C553.3,1280.7,553.3,1292.7,561,1292.7L561,1292.7z"/>
	</g>
</g>
</svg>
