<?xml version="1.0" encoding="utf-8"?>
<!-- Generator: Adobe Illustrator 21.1.0, SVG Export Plug-In . SVG Version: 6.00 Build 0)  -->
<svg version="1.1" id="Layer_1" xmlns="http://www.w3.org/2000/svg" xmlns:xlink="http://www.w3.org/1999/xlink" x="0px" y="0px"
	 viewBox="0 0 600 600" style="enable-background:new 0 0 600 600;" xml:space="preserve">
<style type="text/css">
	.st0{fill:#4E87A4;}
	.st1{clip-path:url(#SVGID_2_);}
	.st2{opacity:0.1;}
	.st3{fill:#DEB17A;}
	.st4{fill:#F0CA99;}
	.st5{fill:#FFFFFF;}
	.st6{fill:#292629;}
	.st7{fill:#1E1C1E;}
	.st8{fill:#B4D8E7;}
	.st9{fill:#3F5970;}
	.st10{fill:#223341;}
	.st11{fill-rule:evenodd;clip-rule:evenodd;fill:#FFFFFF;}
</style>
<rect y="-0.5" class="st0" width="600" height="601"/>
<g id="Hand_shake">
	<defs>
		<rect id="SVGID_1_" y="-0.5" width="600" height="600"/>
	</defs>
	<clipPath id="SVGID_2_">
		<use xlink:href="#SVGID_1_"  style="overflow:visible;"/>
	</clipPath>
	<g class="st1">
		<path class="st2" d="M669.3,292.6l-26.9-97.9l-240.3,66.1v0l-9.8,2.7l0.9,3.2l-23.9,6.6l1.2,4.4l-16-1.7c-2.3-0.2-4.5-0.1-6.7,0.4
			c-1.7-0.8-3.5-1.4-5.3-1.9l0,0l-0.3-0.1l0.1-0.1l-14-4.5l-15.6-5.2l0,0.2l-15.2-4.9l0,0.1l-67,7l-23.8-6.4l0.9-3.2l-9.8-2.6v0
			l-240.6-65l-26.5,98l240.6,65l0,0l9.8,2.6l0,0h0l1-3.6l24,6.5l0.3-1l17.8-1.5l5.8,4.9c-0.7,3.5,0.1,7.2,2.5,10.1
			c3.4,4.2,9,5.5,13.9,3.7l2.7,2.3c-1,3.7-0.3,7.9,2.3,11.1c3.7,4.6,10.1,5.8,15.2,3.2l2,1.7c-1.6,4-1,8.8,1.9,12.3
			c4,4.8,10.9,5.9,16.1,2.7l1.5,1.3c-2.3,4.3-1.9,9.7,1.3,13.6c4.3,5.2,12,6,17.2,1.9c5.2,4.1,12.8,3.4,17.1-1.7
			c3.5-4.2,3.7-9.9,1.1-14.3c0.9-0.3,1.8-0.6,2.7-1c5.1,2.6,11.4,1.4,15.1-3.2c2.3-2.8,3.1-6.4,2.6-9.7l5.2-4.3
			c3.8,0.2,7.7-1.3,10.3-4.5c1.5-1.8,2.3-3.9,2.6-6l20.9-17.1c2-1.6,3.6-3.4,5.1-5.3l3.4,0.7l1.8,6.4l12.9-3.5h0l11.1-3l1,3.6h0
			l9.8-2.7v0L669.3,292.6z"/>
		<g>
			<g>
				<g>
					<path class="st3" d="M316.9,270.2c12.5-10.2,31-8.4,41.2,4.2l30.1,36.9c10.2,12.5,8.4,31-4.2,41.2l-49.4,40.5
						c-12.5,10.2-31,8.4-41.2-4.2L263.3,352c-10.2-12.5-8.4-31,4.2-41.2L316.9,270.2z"/>
				</g>
				<g>
					<path class="st3" d="M407.2,350.8l-60.1-11.9c-11.1-1.1-19.2-11-18.1-22.2l3.3-32.7c1.1-11.1,11-19.2,22.2-18.1l87,9.4
						L407.2,350.8z"/>
				</g>
			</g>
		</g>
		<g>
			<g>
				<g>
					<g>
						<path class="st4" d="M285.5,261.7c-12.6-10.2-31-8.3-41.2,4.3l-28.7,35.7c-10.2,12.6-8.3,31,4.3,41.2l41.4,35
							c12.6,10.2,31,8.3,41.2-4.3l28.7-35.7c10.2-12.6,8.3-31-4.3-41.2L285.5,261.7z"/>
					</g>
					<g>
						<path class="st4" d="M342.5,395.1c-4.3,5.3-12.1,6.1-17.3,1.8l-70.5-57.2c-5.3-4.3-6.1-12-1.8-17.3l0,0
							c4.3-5.3,12.1-6.1,17.3-1.8l70.5,57.2C346,382.1,346.8,389.8,342.5,395.1L342.5,395.1z"/>
					</g>
					<g>
						<path class="st4" d="M323.6,413.7c-4.4,5.2-12.2,5.9-17.4,1.5L236.6,357c-5.2-4.4-5.9-12.1-1.5-17.4l0,0
							c4.4-5.2,12.2-5.9,17.4-1.5l69.6,58.2C327.3,400.7,328,408.4,323.6,413.7L323.6,413.7z"/>
					</g>
					<g>
						<path class="st4" d="M360.6,376.6c-4.3,5.3-12,6.1-17.3,1.8l-70.5-57.2c-5.3-4.3-6.1-12.1-1.8-17.3l0,0
							c4.3-5.3,12.1-6.1,17.3-1.8l70.5,57.2C364,363.6,364.9,371.3,360.6,376.6L360.6,376.6z"/>
					</g>
					<g>
						<path class="st4" d="M378.2,357.6c-4.3,5.3-12.1,6.1-17.3,1.8l-70.5-57.2c-5.3-4.3-6.1-12.1-1.8-17.3l0,0
							c4.3-5.3,12.1-6.1,17.3-1.8l70.5,57.2C381.7,344.5,382.5,352.3,378.2,357.6L378.2,357.6z"/>
					</g>
					<g>
						<path class="st4" d="M206,348.1l63-5.4c11.9-1.2,20.6-11.9,19.4-23.9l-3.7-35.1c-1.2-11.9-11.9-20.6-23.9-19.4l-63,5.4
							L206,348.1z"/>
					</g>
				</g>
				<g>
					<g>
						<g>
							<path class="st4" d="M312.7,255.4l2.4,33.9c1,11.8,11.4,20.5,23.2,19.4l7.1-0.6c0.3,0,0.6-0.1,0.9-0.1l-3.8-42.7L312.7,255.4
								z"/>
						</g>
					</g>
					<g>
						<polygon class="st4" points="331.2,288.3 291.2,279.5 297.5,250.7 342.2,265.1 						"/>
					</g>
					<g>
						<path class="st4" d="M198.9,261.1l98.9-10.3c0.8,2.3,1.3,4.7,1.6,7.2c2.5,24.2-21.3,46.5-53.1,49.8
							c-16.6,1.7-32.1-2.1-43.5-9.5L198.9,261.1z"/>
					</g>
				</g>
			</g>
		</g>
		<g>
			<g>
				
					<rect x="149.4" y="275.1" transform="matrix(0.2607 -0.9654 0.9654 0.2607 -141.9742 409.8486)" class="st5" width="94.5" height="45"/>
				
					<rect x="18.3" y="133.7" transform="matrix(0.2607 -0.9654 0.9654 0.2607 -203.2028 261.4704)" class="st6" width="101.5" height="259.4"/>
				
					<rect x="138.7" y="290.8" transform="matrix(0.2606 -0.9654 0.9654 0.2606 -145.6108 401.6425)" class="st7" width="101.5" height="10.1"/>
			</g>
			<path class="st8" d="M195.4,340.5c-2.4-0.7-3.8-3.1-3.2-5.6c0.7-2.4,3.1-3.8,5.5-3.2c2.4,0.7,3.8,3.1,3.2,5.5
				C200.3,339.7,197.8,341.1,195.4,340.5z"/>
		</g>
		<g>
			<g>
				<g>
					<g>
						<path class="st3" d="M291.6,261.5l-4.4,34.4c-1.7,11.9-12.8,20.2-24.7,18.5l-7.2-1c-0.3,0-0.6-0.1-0.9-0.2l6.3-43.2
							L291.6,261.5z"/>
					</g>
				</g>
				<g>
					<polygon class="st3" points="270.9,293.9 312.2,287.2 307.3,257.5 261,269.7 					"/>
				</g>
				<g>
					<path class="st3" d="M407.2,273.8L307,257.6c-0.9,2.3-1.6,4.7-2,7.3c-3.9,24.5,19,48.5,51.2,53.7c16.8,2.7,32.8-0.3,44.9-7.2
						L407.2,273.8z"/>
				</g>
			</g>
		</g>
		<g>
			<g>
				
					<rect x="381" y="255.6" transform="matrix(0.9642 -0.265 0.265 0.9642 -65.8309 117.7695)" class="st5" width="45" height="94.5"/>
				
					<rect x="401.1" y="217.3" transform="matrix(0.9642 -0.265 0.265 0.9642 -52.0565 150.2766)" class="st9" width="259.4" height="101.5"/>
				
					<rect x="405.6" y="250.3" transform="matrix(0.9642 -0.265 0.265 0.9642 -65.1047 119.6003)" class="st10" width="10.1" height="101.5"/>
			</g>
			<path class="st8" d="M404.7,344.6c2.4-0.7,3.8-3.2,3.2-5.6c-0.7-2.4-3.1-3.8-5.6-3.2c-2.4,0.7-3.8,3.2-3.2,5.6
				C399.8,343.9,402.3,345.3,404.7,344.6z"/>
		</g>
		<path class="st3" d="M289.3,415.5c4.3,5.3,12.1,6.1,17.4,1.8l14.7-12.1c5.3-4.3,6.1-12.1,1.8-17.3l0,0c-4.3-5.3-12.1-6.1-17.4-1.8
			L291,398.1C285.8,402.4,285,410.2,289.3,415.5L289.3,415.5z"/>
		<path class="st3" d="M270.4,397.9c4.3,5.3,12.1,6.1,17.3,1.8l14.7-12.1c5.3-4.3,6.1-12.1,1.8-17.3l0,0c-4.3-5.3-12.1-6.1-17.4-1.8
			l-14.7,12.1C266.9,384.8,266.1,392.6,270.4,397.9L270.4,397.9z"/>
		<path class="st3" d="M251.3,380.7c4.3,5.3,12.1,6.1,17.3,1.8l14.7-12.1c5.3-4.3,6.1-12.1,1.8-17.3l0,0c-4.3-5.3-12.1-6.1-17.4-1.8
			L253,363.3C247.8,367.6,247,375.4,251.3,380.7L251.3,380.7z"/>
		<path class="st3" d="M232.4,363.5c4.3,5.3,12.1,6.1,17.3,1.8l14.7-12.1c5.3-4.3,6.1-12.1,1.8-17.3l0,0c-4.3-5.3-12.1-6.1-17.3-1.8
			l-14.7,12.1C228.9,350.5,228.1,358.2,232.4,363.5L232.4,363.5z"/>
	</g>
</g>
<g>
	<g>
		<g>
			<g>
				<g>
					<path class="st11" d="M219.7,568.3c0.3,0,0.5-0.1,0.8-0.2c0.2-0.1,0.4-0.4,0.6-0.7c0.1-0.3,0.2-0.7,0.2-1.2
						c0-0.4-0.1-0.8-0.2-1.1c-0.1-0.3-0.3-0.6-0.6-0.7c-0.2-0.2-0.5-0.2-0.8-0.2v-1.2c0.3,0,0.5,0.1,0.7,0.2
						c0.3,0.2,0.6,0.4,0.9,0.7v-2.4c0-0.3,0.1-0.6,0.2-0.8c0.1-0.2,0.3-0.3,0.6-0.3c0.2,0,0.4,0.1,0.6,0.2c0.1,0.2,0.2,0.4,0.2,0.7
						v7.2c0,0.3-0.1,0.5-0.2,0.7c-0.1,0.2-0.3,0.2-0.6,0.2c-0.2,0-0.4-0.1-0.6-0.2c-0.1-0.2-0.2-0.4-0.2-0.7v-0.2
						c-0.2,0.3-0.4,0.5-0.6,0.6c-0.2,0.2-0.4,0.3-0.7,0.4c-0.1,0-0.2,0.1-0.3,0.1V568.3z M218.1,566.2c0,0.4,0.1,0.8,0.2,1.1
						c0.1,0.3,0.3,0.5,0.6,0.7c0.2,0.2,0.5,0.2,0.8,0.2h0v1.2c-0.2,0-0.3,0-0.5,0c-0.4,0-0.8-0.1-1.1-0.2c-0.3-0.2-0.6-0.4-0.9-0.7
						c-0.2-0.3-0.4-0.7-0.6-1.1c-0.1-0.4-0.2-0.9-0.2-1.3c0-1,0.3-1.8,0.7-2.4c0.5-0.6,1.2-0.9,2-0.9c0.2,0,0.3,0,0.5,0v1.2h0
						c-0.3,0-0.6,0.1-0.8,0.3c-0.2,0.2-0.4,0.4-0.5,0.7C218.2,565.4,218.1,565.8,218.1,566.2"/>
					<path class="st11" d="M227.3,565.7h1.5c0-0.6-0.2-1-0.5-1.3c-0.3-0.3-0.6-0.4-1-0.4v-1.1h0.1c0.6,0,1.2,0.1,1.6,0.4
						c0.5,0.3,0.8,0.6,1,1c0.2,0.4,0.3,0.9,0.3,1.3c0,0.4-0.1,0.7-0.4,0.8c-0.2,0.1-0.6,0.2-1,0.2h-1.7V565.7z M227.3,569.5v-1.1
						c0,0,0.1,0,0.1,0c0.2,0,0.4,0,0.5-0.1c0.2,0,0.3-0.1,0.5-0.2c0.2-0.1,0.3-0.2,0.4-0.3c0.1-0.1,0.3-0.3,0.5-0.5
						c0.1-0.1,0.2-0.1,0.4-0.1c0.2,0,0.3,0,0.4,0.1c0.1,0.1,0.2,0.2,0.2,0.4c0,0.1-0.1,0.3-0.2,0.5c-0.1,0.2-0.3,0.4-0.5,0.6
						c-0.2,0.2-0.5,0.3-0.9,0.5c-0.4,0.1-0.8,0.2-1.2,0.2C227.5,569.5,227.4,569.5,227.3,569.5 M225.9,565.7h1.5v0.9h-1.5
						c0,0.4,0.1,0.7,0.2,1c0.1,0.3,0.3,0.5,0.6,0.6c0.2,0.1,0.4,0.2,0.7,0.2v1.1c-1,0-1.7-0.3-2.3-0.9c-0.6-0.6-0.9-1.4-0.9-2.4
						c0-0.5,0.1-0.9,0.2-1.3c0.1-0.4,0.4-0.8,0.6-1.1c0.3-0.3,0.6-0.5,1-0.7c0.4-0.2,0.8-0.2,1.3-0.2v1.1h0c-0.4,0-0.7,0.1-1,0.4
						C226.1,564.7,225.9,565.1,225.9,565.7"/>
					<path class="st11" d="M237,567.4c0,0.4-0.1,0.8-0.3,1.2c-0.2,0.3-0.5,0.6-1,0.7c-0.4,0.2-1,0.2-1.6,0.2c-0.6,0-1.1-0.1-1.5-0.3
						c-0.4-0.2-0.7-0.4-0.9-0.7c-0.2-0.3-0.3-0.5-0.3-0.8c0-0.2,0.1-0.3,0.2-0.5c0.1-0.1,0.3-0.2,0.5-0.2c0.2,0,0.3,0,0.4,0.1
						c0.1,0.1,0.2,0.2,0.3,0.4c0.2,0.3,0.4,0.5,0.6,0.7c0.2,0.1,0.6,0.2,1,0.2c0.3,0,0.6-0.1,0.8-0.2c0.2-0.1,0.3-0.3,0.3-0.5
						c0-0.3-0.1-0.5-0.3-0.6c-0.2-0.1-0.6-0.3-1.1-0.4c-0.6-0.1-1-0.3-1.4-0.4c-0.4-0.2-0.6-0.4-0.8-0.6c-0.2-0.3-0.3-0.6-0.3-0.9
						c0-0.3,0.1-0.6,0.3-0.9c0.2-0.3,0.5-0.5,0.9-0.7c0.4-0.2,0.8-0.3,1.4-0.3c0.4,0,0.8,0,1.1,0.1c0.3,0.1,0.6,0.2,0.8,0.4
						c0.2,0.1,0.4,0.3,0.5,0.5c0.1,0.2,0.2,0.4,0.2,0.5c0,0.2-0.1,0.3-0.2,0.5c-0.1,0.1-0.3,0.2-0.5,0.2c-0.2,0-0.3,0-0.4-0.1
						c-0.1-0.1-0.3-0.2-0.4-0.4c-0.1-0.2-0.3-0.3-0.4-0.4c-0.2-0.1-0.4-0.1-0.7-0.1c-0.3,0-0.5,0.1-0.7,0.2
						c-0.2,0.1-0.3,0.3-0.3,0.5c0,0.2,0.1,0.3,0.2,0.4c0.1,0.1,0.3,0.2,0.6,0.3c0.2,0.1,0.6,0.2,1,0.3c0.5,0.1,0.9,0.3,1.2,0.4
						c0.3,0.2,0.6,0.4,0.7,0.6C237,566.8,237,567.1,237,567.4"/>
					<path class="st11" d="M240.1,563.8v4.7c0,0.3-0.1,0.6-0.2,0.7c-0.2,0.2-0.4,0.2-0.6,0.2c-0.2,0-0.4-0.1-0.6-0.3
						c-0.2-0.2-0.2-0.4-0.2-0.7v-4.7c0-0.3,0.1-0.6,0.2-0.7c0.1-0.2,0.3-0.2,0.6-0.2c0.2,0,0.4,0.1,0.6,0.2
						C240,563.3,240.1,563.5,240.1,563.8 M239.3,562.1c-0.2,0-0.4-0.1-0.6-0.2c-0.2-0.1-0.2-0.3-0.2-0.6c0-0.2,0.1-0.4,0.2-0.6
						c0.2-0.2,0.4-0.2,0.6-0.2c0.2,0,0.4,0.1,0.6,0.2c0.2,0.1,0.2,0.3,0.2,0.6c0,0.3-0.1,0.4-0.2,0.6
						C239.7,562.1,239.5,562.1,239.3,562.1"/>
					<path class="st11" d="M244.6,568.2c0.3,0,0.5-0.1,0.8-0.2c0.2-0.1,0.4-0.4,0.6-0.7c0.2-0.3,0.2-0.7,0.2-1.1
						c0-0.7-0.1-1.2-0.4-1.6c-0.3-0.4-0.7-0.5-1.1-0.6v-1.2c0.3,0,0.5,0.1,0.7,0.2c0.3,0.2,0.7,0.5,0.9,0.8v-0.2
						c0-0.3,0.1-0.5,0.2-0.7c0.1-0.2,0.3-0.2,0.5-0.2c0.3,0,0.5,0.1,0.6,0.3c0.1,0.2,0.2,0.5,0.2,0.9v4.7c0,0.5-0.1,1-0.2,1.4
						c-0.1,0.4-0.3,0.7-0.6,1c-0.3,0.3-0.6,0.4-1,0.6c-0.4,0.1-0.9,0.2-1.4,0.2v-1.1c0.4,0,0.6-0.1,0.8-0.2c0.2-0.1,0.4-0.3,0.5-0.5
						c0.1-0.2,0.1-0.4,0.2-0.7c0-0.2,0-0.6,0-1.2c-0.3,0.3-0.5,0.6-0.9,0.8c-0.2,0.1-0.4,0.2-0.7,0.2V568.2z M243,566.2
						c0,0.7,0.1,1.2,0.4,1.5c0.3,0.3,0.7,0.5,1.1,0.5h0v1.2c-0.2,0-0.3,0-0.5,0c-0.5,0-1-0.1-1.4-0.4c-0.4-0.3-0.7-0.7-0.9-1.2
						c-0.2-0.5-0.3-1.1-0.3-1.7c0-0.5,0.1-0.9,0.2-1.3c0.1-0.4,0.3-0.7,0.6-1c0.2-0.3,0.5-0.5,0.9-0.6c0.3-0.1,0.7-0.2,1.1-0.2
						c0.2,0,0.4,0,0.5,0v1.2h0c-0.5,0-0.8,0.2-1.1,0.5C243.2,565,243,565.5,243,566.2 M244.6,570.8v1.1l-0.1,0
						c-0.6,0-1.1-0.1-1.5-0.2c-0.4-0.2-0.8-0.4-1-0.6c-0.2-0.3-0.4-0.5-0.4-0.8c0-0.2,0.1-0.4,0.2-0.5c0.1-0.1,0.3-0.2,0.5-0.2
						c0.2,0,0.4,0.1,0.6,0.3c0.1,0.1,0.2,0.2,0.3,0.3c0.1,0.1,0.2,0.2,0.3,0.3c0.1,0.1,0.2,0.1,0.4,0.2c0.2,0,0.3,0.1,0.6,0.1
						C244.5,570.8,244.6,570.8,244.6,570.8"/>
					<path class="st11" d="M250.9,563.8v0.2c0.3-0.4,0.6-0.7,0.9-0.8c0.3-0.2,0.7-0.3,1.2-0.3c0.4,0,0.8,0.1,1.2,0.3
						c0.3,0.2,0.6,0.5,0.8,0.8c0.1,0.2,0.2,0.4,0.2,0.6c0,0.2,0,0.5,0,0.9v3c0,0.3-0.1,0.6-0.2,0.7c-0.2,0.2-0.3,0.2-0.6,0.2
						c-0.2,0-0.4-0.1-0.6-0.3c-0.2-0.2-0.2-0.4-0.2-0.7v-2.7c0-0.5-0.1-0.9-0.2-1.2c-0.1-0.3-0.4-0.4-0.9-0.4
						c-0.3,0-0.6,0.1-0.8,0.3c-0.2,0.2-0.4,0.4-0.5,0.7c-0.1,0.2-0.1,0.7-0.1,1.4v2c0,0.3-0.1,0.6-0.2,0.7c-0.2,0.2-0.4,0.2-0.6,0.2
						c-0.2,0-0.4-0.1-0.6-0.3c-0.2-0.2-0.2-0.4-0.2-0.7v-4.7c0-0.3,0.1-0.5,0.2-0.7c0.1-0.2,0.3-0.2,0.6-0.2c0.1,0,0.3,0,0.4,0.1
						c0.1,0.1,0.2,0.2,0.3,0.3C250.9,563.4,250.9,563.6,250.9,563.8"/>
					<path class="st11" d="M259.7,565.7h1.5c0-0.6-0.2-1-0.5-1.3c-0.3-0.3-0.6-0.4-1-0.4v-1.1h0.1c0.6,0,1.2,0.1,1.6,0.4
						c0.5,0.3,0.8,0.6,1,1c0.2,0.4,0.3,0.9,0.3,1.3c0,0.4-0.1,0.7-0.4,0.8c-0.2,0.1-0.6,0.2-1,0.2h-1.7V565.7z M259.7,569.5v-1.1
						c0,0,0.1,0,0.1,0c0.2,0,0.4,0,0.5-0.1c0.2,0,0.3-0.1,0.5-0.2c0.2-0.1,0.3-0.2,0.4-0.3c0.1-0.1,0.3-0.3,0.5-0.5
						c0.1-0.1,0.2-0.1,0.4-0.1c0.2,0,0.3,0,0.4,0.1c0.1,0.1,0.2,0.2,0.2,0.4c0,0.1-0.1,0.3-0.2,0.5c-0.1,0.2-0.3,0.4-0.5,0.6
						c-0.2,0.2-0.5,0.3-0.9,0.5c-0.4,0.1-0.8,0.2-1.2,0.2C259.8,569.5,259.7,569.5,259.7,569.5 M258.2,565.7h1.5v0.9h-1.5
						c0,0.4,0.1,0.7,0.2,1c0.1,0.3,0.3,0.5,0.6,0.6c0.2,0.1,0.4,0.2,0.7,0.2v1.1c-1,0-1.7-0.3-2.3-0.9c-0.6-0.6-0.9-1.4-0.9-2.4
						c0-0.5,0.1-0.9,0.2-1.3c0.1-0.4,0.4-0.8,0.6-1.1c0.3-0.3,0.6-0.5,1-0.7c0.4-0.2,0.8-0.2,1.3-0.2v1.1h0c-0.4,0-0.7,0.1-1,0.4
						C258.4,564.7,258.2,565.1,258.2,565.7"/>
					<path class="st11" d="M266.9,568.3c0.3,0,0.5-0.1,0.8-0.2c0.2-0.1,0.4-0.4,0.6-0.7c0.1-0.3,0.2-0.7,0.2-1.2
						c0-0.4-0.1-0.8-0.2-1.1c-0.1-0.3-0.3-0.6-0.6-0.7c-0.2-0.2-0.5-0.2-0.8-0.2v-1.2c0.3,0,0.5,0.1,0.7,0.2
						c0.3,0.2,0.6,0.4,0.9,0.7v-2.4c0-0.3,0.1-0.6,0.2-0.8c0.1-0.2,0.3-0.3,0.6-0.3c0.2,0,0.4,0.1,0.6,0.2c0.1,0.2,0.2,0.4,0.2,0.7
						v7.2c0,0.3-0.1,0.5-0.2,0.7c-0.1,0.2-0.3,0.2-0.6,0.2c-0.2,0-0.4-0.1-0.6-0.2c-0.1-0.2-0.2-0.4-0.2-0.7v-0.2
						c-0.2,0.3-0.4,0.5-0.6,0.6c-0.2,0.2-0.4,0.3-0.7,0.4c-0.1,0-0.2,0.1-0.3,0.1V568.3z M265.4,566.2c0,0.4,0.1,0.8,0.2,1.1
						c0.1,0.3,0.3,0.5,0.6,0.7c0.2,0.2,0.5,0.2,0.8,0.2h0v1.2c-0.2,0-0.3,0-0.5,0c-0.4,0-0.8-0.1-1.1-0.2c-0.3-0.2-0.6-0.4-0.9-0.7
						c-0.2-0.3-0.4-0.7-0.6-1.1c-0.1-0.4-0.2-0.9-0.2-1.3c0-1,0.2-1.8,0.7-2.4c0.5-0.6,1.2-0.9,2-0.9c0.2,0,0.3,0,0.5,0v1.2h0
						c-0.3,0-0.6,0.1-0.8,0.3c-0.2,0.2-0.4,0.4-0.5,0.7C265.4,565.4,265.4,565.8,265.4,566.2"/>
					<path class="st11" d="M278,568.3L278,568.3c0.5,0,0.8-0.2,1.1-0.5c0.3-0.4,0.4-0.9,0.4-1.5c0-0.4-0.1-0.8-0.2-1.1
						c-0.1-0.3-0.3-0.6-0.5-0.7c-0.2-0.2-0.5-0.3-0.8-0.3c0,0,0,0-0.1,0v-1.2c0.2,0,0.3,0,0.5,0c0.5,0,1,0.1,1.4,0.4
						c0.4,0.3,0.7,0.6,1,1.1c0.2,0.5,0.3,1.1,0.3,1.7c0,0.5-0.1,1-0.2,1.4c-0.1,0.4-0.3,0.8-0.6,1.1c-0.2,0.3-0.5,0.5-0.9,0.7
						c-0.3,0.2-0.7,0.2-1.1,0.2c-0.2,0-0.3,0-0.5,0V568.3z M276.4,566.2c0,0.7,0.1,1.2,0.4,1.5c0.3,0.3,0.7,0.5,1.1,0.5v1.2
						c-0.1,0-0.2,0-0.2-0.1c-0.2-0.1-0.4-0.1-0.6-0.2c-0.2-0.1-0.3-0.2-0.4-0.3c-0.1-0.1-0.3-0.3-0.4-0.5v0.2c0,0.3-0.1,0.5-0.2,0.7
						c-0.1,0.2-0.3,0.2-0.6,0.2c-0.2,0-0.4-0.1-0.6-0.2c-0.1-0.2-0.2-0.4-0.2-0.7v-7.1c0-0.3,0.1-0.6,0.2-0.7
						c0.1-0.2,0.3-0.3,0.6-0.3c0.3,0,0.4,0.1,0.6,0.2c0.1,0.2,0.2,0.4,0.2,0.7v2.5c0.3-0.3,0.6-0.6,0.9-0.7c0.2-0.1,0.4-0.2,0.7-0.2
						v1.2c-0.3,0-0.5,0.1-0.8,0.2c-0.2,0.2-0.4,0.4-0.6,0.7C276.5,565.4,276.4,565.8,276.4,566.2"/>
					<path class="st11" d="M283.8,569.7l0.1-0.4l-2-5.1c-0.1-0.3-0.2-0.5-0.2-0.6c0-0.1,0-0.3,0.1-0.4c0.1-0.1,0.2-0.2,0.3-0.3
						c0.1-0.1,0.3-0.1,0.4-0.1c0.2,0,0.4,0.1,0.5,0.2c0.1,0.1,0.2,0.4,0.3,0.6l1.4,4l1.3-3.7c0.1-0.3,0.2-0.5,0.3-0.7
						c0.1-0.2,0.2-0.3,0.3-0.3c0.1-0.1,0.2-0.1,0.4-0.1c0.1,0,0.2,0,0.4,0.1c0.1,0.1,0.2,0.2,0.3,0.3c0.1,0.1,0.1,0.2,0.1,0.4
						c0,0.1,0,0.2-0.1,0.3c0,0.1-0.1,0.3-0.1,0.4l-2.1,5.6c-0.2,0.5-0.4,0.9-0.5,1.2c-0.2,0.3-0.4,0.5-0.7,0.6
						c-0.3,0.1-0.7,0.2-1.2,0.2c-0.5,0-0.8-0.1-1.1-0.2c-0.2-0.1-0.4-0.3-0.4-0.6c0-0.2,0.1-0.3,0.2-0.4c0.1-0.1,0.3-0.2,0.5-0.2
						c0.1,0,0.2,0,0.3,0c0.1,0,0.2,0,0.3,0c0.2,0,0.3,0,0.4-0.1c0.1-0.1,0.2-0.2,0.3-0.3C283.6,570.2,283.7,570,283.8,569.7"/>
					<path class="st11" d="M314.1,563h0.4v-0.5c0-0.5,0.1-0.9,0.2-1.2c0.1-0.3,0.4-0.5,0.7-0.7c0.3-0.1,0.7-0.2,1.3-0.2
						c1,0,1.4,0.2,1.4,0.7c0,0.1-0.1,0.3-0.2,0.4c-0.1,0.1-0.2,0.2-0.4,0.2c-0.1,0-0.2,0-0.3,0c-0.2,0-0.3,0-0.4,0
						c-0.3,0-0.5,0.1-0.6,0.3c-0.1,0.2-0.1,0.4-0.1,0.7v0.4h0.4c0.6,0,0.9,0.2,0.9,0.6c0,0.3-0.1,0.4-0.2,0.5
						c-0.2,0.1-0.4,0.1-0.7,0.1h-0.4v4.3c0,0.3-0.1,0.6-0.2,0.7c-0.2,0.2-0.4,0.3-0.6,0.3c-0.2,0-0.4-0.1-0.6-0.3
						c-0.2-0.2-0.2-0.4-0.2-0.7v-4.3H314c-0.2,0-0.4-0.1-0.6-0.2c-0.1-0.1-0.2-0.2-0.2-0.4C313.2,563.2,313.5,563,314.1,563"/>
					<path class="st11" d="M319.9,567.2v1.4c0,0.3-0.1,0.6-0.2,0.7c-0.2,0.2-0.4,0.2-0.6,0.2c-0.2,0-0.4-0.1-0.6-0.2
						c-0.2-0.2-0.2-0.4-0.2-0.7V564c0-0.7,0.3-1.1,0.8-1.1c0.3,0,0.5,0.1,0.6,0.3c0.1,0.2,0.2,0.4,0.2,0.8c0.2-0.3,0.4-0.6,0.6-0.8
						c0.2-0.2,0.5-0.3,0.8-0.3c0.3,0,0.7,0.1,1,0.3c0.3,0.2,0.5,0.4,0.5,0.7c0,0.2-0.1,0.4-0.2,0.5c-0.1,0.1-0.3,0.2-0.4,0.2
						c-0.1,0-0.2,0-0.4-0.1c-0.2-0.1-0.4-0.1-0.6-0.1c-0.2,0-0.4,0.1-0.6,0.2c-0.2,0.1-0.3,0.3-0.4,0.6c-0.1,0.3-0.1,0.5-0.2,0.9
						C319.9,566.3,319.9,566.7,319.9,567.2"/>
					<path class="st11" d="M326.2,565.7h1.5c0-0.6-0.2-1-0.5-1.3c-0.3-0.3-0.6-0.4-1-0.4v-1.1h0.1c0.6,0,1.2,0.1,1.6,0.4
						c0.5,0.3,0.8,0.6,1,1c0.2,0.4,0.3,0.9,0.3,1.3c0,0.4-0.1,0.7-0.4,0.8c-0.2,0.1-0.6,0.2-1,0.2h-1.7V565.7z M326.2,569.5v-1.1
						c0,0,0.1,0,0.1,0c0.2,0,0.4,0,0.5-0.1c0.2,0,0.3-0.1,0.5-0.2c0.2-0.1,0.3-0.2,0.4-0.3c0.1-0.1,0.3-0.3,0.5-0.5
						c0.1-0.1,0.2-0.1,0.4-0.1c0.2,0,0.3,0,0.4,0.1c0.1,0.1,0.2,0.2,0.2,0.4c0,0.1-0.1,0.3-0.2,0.5c-0.1,0.2-0.3,0.4-0.5,0.6
						c-0.2,0.2-0.5,0.3-0.9,0.5c-0.4,0.1-0.8,0.2-1.2,0.2C326.3,569.5,326.2,569.5,326.2,569.5 M324.7,565.7h1.5v0.9h-1.5
						c0,0.4,0.1,0.7,0.2,1c0.1,0.3,0.3,0.5,0.6,0.6c0.2,0.1,0.4,0.2,0.7,0.2v1.1c-1,0-1.7-0.3-2.3-0.9c-0.6-0.6-0.9-1.4-0.9-2.4
						c0-0.5,0.1-0.9,0.2-1.3c0.1-0.4,0.4-0.8,0.6-1.1c0.3-0.3,0.6-0.5,1-0.7c0.4-0.2,0.8-0.2,1.3-0.2v1.1h0c-0.4,0-0.7,0.1-1,0.4
						C324.9,564.7,324.8,565.1,324.7,565.7"/>
					<path class="st11" d="M333.5,565.7h1.5c0-0.6-0.2-1-0.4-1.3c-0.3-0.3-0.6-0.4-1-0.4v-1.1h0c0.6,0,1.2,0.1,1.6,0.4
						c0.5,0.3,0.8,0.6,1,1c0.2,0.4,0.3,0.9,0.3,1.3c0,0.4-0.1,0.7-0.4,0.8c-0.2,0.1-0.6,0.2-1,0.2h-1.7V565.7z M333.5,569.5v-1.1
						c0,0,0.1,0,0.1,0c0.2,0,0.4,0,0.5-0.1c0.2,0,0.3-0.1,0.5-0.2c0.2-0.1,0.3-0.2,0.4-0.3c0.1-0.1,0.3-0.3,0.5-0.5
						c0.1-0.1,0.2-0.1,0.4-0.1c0.2,0,0.3,0,0.4,0.1c0.1,0.1,0.2,0.2,0.2,0.4c0,0.1-0.1,0.3-0.2,0.5c-0.1,0.2-0.3,0.4-0.5,0.6
						c-0.2,0.2-0.5,0.3-0.9,0.5c-0.4,0.1-0.8,0.2-1.2,0.2C333.6,569.5,333.5,569.5,333.5,569.5 M332,565.7h1.5v0.9H332
						c0,0.4,0.1,0.7,0.2,1c0.1,0.3,0.3,0.5,0.6,0.6c0.2,0.1,0.4,0.2,0.7,0.2v1.1c-1,0-1.7-0.3-2.3-0.9c-0.6-0.6-0.9-1.4-0.9-2.4
						c0-0.5,0.1-0.9,0.2-1.3c0.1-0.4,0.4-0.8,0.6-1.1c0.3-0.3,0.6-0.5,1-0.7c0.4-0.2,0.8-0.2,1.3-0.2v1.1h0c-0.4,0-0.7,0.1-1,0.4
						C332.2,564.7,332,565.1,332,565.7"/>
					<path class="st11" d="M342.5,566.2c0-0.4-0.1-0.8-0.2-1.1c-0.1-0.3-0.3-0.5-0.5-0.7c-0.2-0.2-0.5-0.2-0.8-0.2h0v-1.2
						c0.1,0,0.3,0,0.4,0c0.5,0,1,0.1,1.4,0.4c0.4,0.3,0.8,0.6,1,1.1c0.2,0.5,0.4,1.1,0.4,1.8c0,0.5-0.1,1-0.2,1.4
						c-0.1,0.4-0.3,0.8-0.6,1.1c-0.3,0.3-0.5,0.5-0.9,0.7c-0.3,0.2-0.7,0.2-1.1,0.2c-0.2,0-0.3,0-0.4,0v-1.2h0
						c0.3,0,0.5-0.1,0.8-0.2c0.2-0.2,0.4-0.4,0.6-0.7C342.4,567,342.5,566.6,342.5,566.2 M340.9,564.1c-0.4,0-0.8,0.2-1.1,0.5
						c-0.3,0.4-0.5,0.9-0.5,1.6c0,0.6,0.2,1.2,0.5,1.5c0.3,0.4,0.7,0.5,1.1,0.5v1.2c-0.3,0-0.5-0.1-0.7-0.3
						c-0.3-0.2-0.6-0.5-0.9-0.8v2.5c0,0.7-0.3,1.1-0.8,1.1c-0.3,0-0.5-0.1-0.6-0.3c-0.1-0.2-0.1-0.5-0.1-0.8v-7.1
						c0-0.3,0.1-0.5,0.2-0.7c0.1-0.2,0.3-0.2,0.6-0.2c0.2,0,0.4,0.1,0.6,0.2c0.1,0.2,0.2,0.4,0.2,0.7v0.2c0.3-0.4,0.6-0.7,1-0.8
						c0.2-0.1,0.4-0.2,0.7-0.2V564.1z"/>
					<path class="st11" d="M347,563.8v4.7c0,0.3-0.1,0.6-0.2,0.7c-0.2,0.2-0.4,0.2-0.6,0.2c-0.2,0-0.4-0.1-0.6-0.3
						c-0.1-0.2-0.2-0.4-0.2-0.7v-4.7c0-0.3,0.1-0.6,0.2-0.7c0.2-0.2,0.3-0.2,0.6-0.2c0.2,0,0.4,0.1,0.6,0.2
						C347,563.3,347,563.5,347,563.8 M346.2,562.1c-0.2,0-0.4-0.1-0.6-0.2c-0.2-0.1-0.2-0.3-0.2-0.6c0-0.2,0.1-0.4,0.2-0.6
						c0.2-0.2,0.4-0.2,0.6-0.2c0.2,0,0.4,0.1,0.6,0.2c0.2,0.1,0.2,0.3,0.2,0.6c0,0.3-0.1,0.4-0.2,0.6
						C346.6,562.1,346.5,562.1,346.2,562.1"/>
					<path class="st11" d="M352.8,568.8l-1.4-2.4l-0.9,0.8v1.3c0,0.3-0.1,0.6-0.2,0.7c-0.2,0.2-0.4,0.3-0.6,0.3
						c-0.3,0-0.5-0.1-0.6-0.2c-0.1-0.2-0.2-0.4-0.2-0.7v-7c0-0.4,0.1-0.6,0.2-0.8c0.1-0.2,0.3-0.3,0.6-0.3c0.3,0,0.5,0.1,0.6,0.3
						c0.1,0.2,0.2,0.4,0.2,0.8v4l1.8-1.9c0.2-0.2,0.4-0.4,0.5-0.5c0.1-0.1,0.3-0.1,0.4-0.1c0.2,0,0.4,0.1,0.5,0.2
						c0.1,0.1,0.2,0.3,0.2,0.5c0,0.2-0.2,0.6-0.7,1l-0.9,0.8l1.7,2.6c0.1,0.2,0.2,0.3,0.3,0.4c0.1,0.1,0.1,0.2,0.1,0.3
						c0,0.3-0.1,0.5-0.2,0.6c-0.1,0.1-0.3,0.2-0.6,0.2c-0.2,0-0.4-0.1-0.5-0.2C353.1,569.3,353,569.1,352.8,568.8"/>
					<path class="st11" d="M356.8,569.5c-0.2,0-0.5-0.1-0.6-0.2c-0.2-0.2-0.3-0.4-0.3-0.7c0-0.2,0.1-0.5,0.3-0.6
						c0.2-0.2,0.4-0.3,0.6-0.3c0.2,0,0.5,0.1,0.6,0.3c0.2,0.2,0.3,0.4,0.3,0.6c0,0.3-0.1,0.5-0.3,0.7
						C357.3,569.5,357.1,569.5,356.8,569.5"/>
					<path class="st11" d="M365.5,567.5c0,0.2-0.1,0.4-0.2,0.7c-0.1,0.2-0.3,0.5-0.6,0.7c-0.2,0.2-0.6,0.4-0.9,0.5
						c-0.4,0.1-0.8,0.2-1.3,0.2c-1,0-1.8-0.3-2.4-0.9c-0.6-0.6-0.9-1.4-0.9-2.4c0-0.7,0.1-1.3,0.4-1.8c0.3-0.5,0.6-0.9,1.1-1.2
						c0.5-0.3,1.1-0.4,1.8-0.4c0.4,0,0.8,0.1,1.2,0.2c0.4,0.1,0.7,0.3,0.9,0.5c0.2,0.2,0.4,0.4,0.6,0.6c0.1,0.2,0.2,0.4,0.2,0.6
						c0,0.2-0.1,0.4-0.2,0.5c-0.1,0.1-0.3,0.2-0.5,0.2c-0.1,0-0.3,0-0.3-0.1c-0.1-0.1-0.2-0.2-0.3-0.3c-0.2-0.3-0.4-0.5-0.6-0.7
						c-0.2-0.2-0.5-0.2-0.8-0.2c-0.5,0-0.9,0.2-1.2,0.6c-0.3,0.4-0.4,0.9-0.4,1.5c0,0.3,0,0.6,0.1,0.8c0.1,0.3,0.2,0.5,0.3,0.7
						c0.1,0.2,0.3,0.3,0.5,0.4c0.2,0.1,0.4,0.1,0.7,0.1c0.3,0,0.6-0.1,0.8-0.2c0.2-0.2,0.4-0.4,0.6-0.7c0.1-0.2,0.2-0.3,0.3-0.4
						c0.1-0.1,0.3-0.2,0.4-0.2c0.2,0,0.4,0.1,0.5,0.2C365.4,567.2,365.5,567.3,365.5,567.5"/>
					<path class="st11" d="M371.4,566.2c0-0.7-0.1-1.2-0.4-1.6c-0.3-0.4-0.7-0.6-1.2-0.6v-1.2c0.5,0,0.9,0.1,1.3,0.2
						c0.4,0.2,0.7,0.4,1,0.7c0.3,0.3,0.5,0.6,0.7,1.1c0.2,0.4,0.2,0.9,0.2,1.3c0,0.5-0.1,0.9-0.2,1.3c-0.2,0.4-0.4,0.8-0.7,1.1
						c-0.3,0.3-0.6,0.5-1,0.7c-0.4,0.2-0.8,0.2-1.3,0.2v-1.2c0.5,0,0.9-0.2,1.2-0.6C371.2,567.4,371.4,566.9,371.4,566.2
						 M369.7,564.1L369.7,564.1c-0.3,0-0.6,0.1-0.9,0.2c-0.2,0.2-0.4,0.4-0.6,0.7c-0.1,0.3-0.2,0.7-0.2,1.1c0,0.4,0.1,0.8,0.2,1.1
						c0.1,0.3,0.3,0.6,0.6,0.7c0.2,0.2,0.5,0.3,0.9,0.3h0v1.2h0c-0.5,0-0.9-0.1-1.3-0.2c-0.4-0.2-0.7-0.4-1-0.7
						c-0.3-0.3-0.5-0.6-0.7-1.1c-0.2-0.4-0.2-0.9-0.2-1.3c0-0.5,0.1-0.9,0.2-1.4c0.1-0.4,0.4-0.8,0.6-1.1c0.3-0.3,0.6-0.5,1-0.7
						c0.4-0.2,0.8-0.2,1.3-0.2h0V564.1z"/>
					<path class="st11" d="M379.7,566.3v2.2c0,0.3-0.1,0.6-0.2,0.8c-0.2,0.2-0.4,0.3-0.6,0.3c-0.2,0-0.4-0.1-0.6-0.3
						c-0.2-0.2-0.2-0.4-0.2-0.8v-2.6c0-0.4,0-0.7,0-1c0-0.2-0.1-0.4-0.2-0.6c-0.1-0.1-0.3-0.2-0.6-0.2c-0.5,0-0.9,0.2-1.1,0.5
						c-0.2,0.4-0.3,0.9-0.3,1.6v2.2c0,0.3-0.1,0.6-0.2,0.8c-0.2,0.2-0.4,0.3-0.6,0.3c-0.2,0-0.4-0.1-0.6-0.3
						c-0.2-0.2-0.2-0.4-0.2-0.8v-4.7c0-0.3,0.1-0.5,0.2-0.7c0.1-0.2,0.3-0.2,0.6-0.2c0.2,0,0.4,0.1,0.6,0.2c0.2,0.1,0.2,0.4,0.2,0.6
						v0.2c0.3-0.3,0.6-0.6,0.9-0.7c0.3-0.2,0.7-0.2,1.1-0.2c0.4,0,0.8,0.1,1.1,0.2c0.3,0.2,0.5,0.4,0.7,0.7c0.3-0.3,0.6-0.6,0.9-0.7
						c0.3-0.2,0.7-0.2,1-0.2c0.4,0,0.8,0.1,1.2,0.3c0.3,0.2,0.6,0.4,0.7,0.8c0.1,0.3,0.2,0.8,0.2,1.4v3.2c0,0.3-0.1,0.6-0.2,0.8
						c-0.2,0.2-0.4,0.3-0.6,0.3c-0.2,0-0.4-0.1-0.6-0.3c-0.2-0.2-0.2-0.4-0.2-0.8v-2.7c0-0.3,0-0.6,0-0.8c0-0.2-0.1-0.4-0.2-0.5
						c-0.1-0.1-0.3-0.2-0.6-0.2c-0.2,0-0.4,0.1-0.6,0.2c-0.2,0.1-0.3,0.3-0.5,0.5C379.8,565.1,379.7,565.6,379.7,566.3"/>
					<path class="st11" d="M301.2,558.7c0-0.1-0.1-0.2-0.1-0.3c0.5-0.1,0.9-0.7,0.6-1.2c-0.1-0.3-0.4-0.4-0.7-0.5h0
						c-0.3,0-0.5,0.1-0.7,0.3c-0.3,0.4-0.1,1.1,0.5,1.3c0,0.1,0.1,0.2,0.1,0.3c-0.8,0.1-1.7,0.2-2.4,0.7c0.1,0.2,0.1,0.4,0.2,0.6
						c1.4-0.6,3-0.5,4.4-0.3c0-0.2,0.1-0.4,0.1-0.6C302.6,558.8,301.9,558.7,301.2,558.7"/>
					<path class="st11" d="M309.5,560.9c-0.2,0.1-0.3,0.4-0.2,0.6c-0.2,0.2-0.1,0.6-0.2,0.9c-0.1,0.2-0.3,0.2-0.4,0.2
						c-0.2-0.3-0.4-0.6-0.7-0.8l0,0c-0.3-0.3-0.6-0.5-0.9-0.7c-0.3,0.3-0.5,0.5-0.8,0.8c0.5,0.5,0.9,1.1,1.3,1.7
						c0.3,0.5,0.5,1,0.7,1.5c0.4-0.2,0.8-0.4,1.2-0.7c-0.2-0.5-0.5-1-0.7-1.5c0.2-0.1,0.4-0.2,0.5-0.4c0-0.3,0-0.6,0.1-0.8
						c0.3,0.2,0.8,0,0.8-0.4C310.3,561,309.8,560.7,309.5,560.9"/>
					<path class="st11" d="M306.2,564.3c-0.1,0.7-0.7,1.2-1.4,1.2v2.7c1.3-0.3,2.5-0.8,3.6-1.5c0,0-0.2-1.3-1.2-2.7
						c-0.5-0.9-1.1-1.8-1.9-2.5c-0.2-0.1-0.3-0.3-0.5-0.4v1.6c0.2,0,0.3,0,0.5,0.1C305.9,562.9,306.4,563.6,306.2,564.3
						 M304.8,565.5L304.8,565.5c-0.4,0-0.8-0.2-1.1-0.4c-0.2-0.2-0.4-0.5-0.4-0.8c-0.1-0.7,0.4-1.4,1.1-1.5c0.1,0,0.3-0.1,0.4,0
						v-1.6c-0.8-0.6-1.8-0.9-2.8-0.9c-1.2,0-2.5,0.1-3.7,0.5v1.5c0.2,0,0.4,0,0.7,0.1c0.2,0.1,0.5,0.2,0.7,0.3
						c0.4,0.3,0.7,0.7,0.9,1.2c0.2,0.6,0.1,1.4-0.3,1.9c-0.3,0.4-0.7,0.7-1.1,0.9c-0.3,0.1-0.5,0.1-0.8,0.1v2l0.1,0
						c1.5,0,2.9,0.1,4.4-0.1c0.7-0.1,1.4-0.2,2.1-0.4V565.5z M298.3,560.6v1.5c-0.4,0-0.8,0.1-1.1,0.3c-0.7,0.4-1.2,1.1-1.2,1.9
						c0,0.6,0.2,1.3,0.6,1.7c0.4,0.5,1,0.7,1.7,0.7v2c-1.5-0.1-2.9-0.4-4.3-0.7c-0.3-1.3-0.3-2.7,0.3-4c0.6-1.4,1.8-2.4,3.1-3
						C297.7,560.8,298,560.7,298.3,560.6"/>
					<path class="st11" d="M294.3,561.9c-0.6,0.4-1.1,0.8-1.5,1.4c-0.1-0.2-0.2-0.5-0.3-0.7c-0.1-0.1-0.2-0.1-0.4-0.1
						c-0.2,0-0.3,0-0.5-0.1c0.2-0.2,0.1-0.6-0.1-0.8c-0.3-0.2-0.7,0-0.8,0.3c-0.1,0.4,0.3,0.7,0.6,0.6c0.2,0.3,0.5,0.2,0.8,0.2
						c0.1,0.2,0.2,0.5,0.4,0.7c-0.3,0.6-0.5,1.3-0.5,2c0.4,0.2,0.8,0.3,1.2,0.5c0-0.4,0.1-0.9,0.1-1.3c0.1-0.9,0.7-1.8,1.3-2.4
						C294.6,562.2,294.4,562.1,294.3,561.9"/>
					<path class="st11" d="M303.7,569c-1.5,0.3-3,0.4-4.5,0.4c-1-0.1-2-0.1-3-0.4c-0.7-0.1-1.4-0.4-2.1-0.6c0.1,0.9,0.5,1.7,1,2.5
						c0.6,0.9,1.4,1.6,2.4,2c0.7,0.2,1.6,0.5,3,0.5h0.1l0.1,0c1.3,0,2.7-0.2,3.8-0.7c0.8-0.3,1.5-0.8,2.1-1.3
						c0.5-0.5,0.9-1.1,1.2-1.8c0.3-0.6,0.5-1.8,0.5-2.3C306.9,568,305.3,568.7,303.7,569"/>
				</g>
			</g>
		</g>
	</g>
</g>
<rect x="191.3" y="532.4" class="st0" width="209.3" height="51.1"/>
</svg>
