<?xml version="1.0" encoding="utf-8"?>
<!-- Generator: Adobe Illustrator 21.1.0, SVG Export Plug-In . SVG Version: 6.00 Build 0)  -->
<svg version="1.1" id="Layer_1" xmlns="http://www.w3.org/2000/svg" xmlns:xlink="http://www.w3.org/1999/xlink" x="0px" y="0px"
	 viewBox="0 0 747 729" style="enable-background:new 0 0 747 729;" xml:space="preserve">
<style type="text/css">
	.st0{fill:#4E87A4;}
	.st1{fill:none;stroke:#000000;stroke-miterlimit:10;}
	.st2{fill:#BCBCBC;}
	.st3{fill:#FFF80B;stroke:#000000;stroke-width:0.1;stroke-miterlimit:10;}
	.st4{fill:none;stroke:#000000;stroke-width:0.1;stroke-miterlimit:10;}
	.st5{fill:#FFDA00;stroke:#FFDA00;stroke-miterlimit:10;}
</style>
<rect class="st0" width="746" height="730"/>
<ellipse class="st0" cx="373.5" cy="364.5" rx="373.5" ry="364.5"/>
<ellipse class="st1" cx="279.7" cy="334.6" rx="137.7" ry="113"/>
<ellipse class="st2" cx="274.1" cy="333.8" rx="179.1" ry="146.9"/>
<polygon class="st3" points="281.5,227.3 373.3,142.8 336.6,91.4 219.1,91.4 182.3,139.1 266.8,230.9 277.8,230.9 "/>
<line class="st4" x1="186" y1="139.1" x2="369.7" y2="139.1"/>
<polyline class="st4" points="214.5,97.3 244.1,139.1 277.8,95 305.2,139.1 336.6,98.7 "/>
<polyline class="st4" points="244.8,142.8 274.2,225.4 307.2,142.8 "/>
<ellipse class="st0" cx="275.1" cy="334.4" rx="151.5" ry="124.3"/>
<ellipse class="st1" cx="467" cy="401.7" rx="163.4" ry="134.1"/>
<ellipse class="st5" cx="468.8" cy="405.8" rx="216.7" ry="177.7"/>
<ellipse class="st0" cx="470.7" cy="405.4" rx="163.4" ry="134.1"/>
<g>
	<path class="st2" d="M434.3,270.1c-0.7-1.3-1.4-2.6-2.2-3.9c-7.3-12.6-16.8-24.2-28.1-34.5c-9.5,2.3-18.7,5.2-27.6,8.5
		c11.9,9.3,21.9,20.1,29.6,32.1c0.9,1.3,1.7,2.7,2.5,4c9.5,16.2,14.8,34.4,14.8,53.6c0,55.9-45.1,103.1-106.9,118.2c0,0,0,0,0,0
		c7,12.3,11.5,19.7,11.5,19.7c70.6-19,121.6-73.8,121.6-138.5C449.5,308.2,444.1,288.2,434.3,270.1z"/>
</g>
</svg>
