<?xml version="1.0" encoding="utf-8"?>
<!-- Generator: Adobe Illustrator 21.1.0, SVG Export Plug-In . SVG Version: 6.00 Build 0)  -->
<svg version="1.1" id="Layer_1" xmlns="http://www.w3.org/2000/svg" xmlns:xlink="http://www.w3.org/1999/xlink" x="0px" y="0px"
	 viewBox="0 0 2304 1440" style="enable-background:new 0 0 2304 1440;" xml:space="preserve">
<style type="text/css">
	.st0{fill:#00F3FF;}
	.st1{fill:#FF0000;}
	.st2{fill:#FFF800;}
	.st3{fill:url(#SVGID_1_);}
	.st4{fill:#FFFF06;}
	.st5{fill:#FF4808;}
	.st6{fill:#202020;}
</style>
<g>
	<rect x="0.5" y="0.5" class="st0" width="2303" height="1439"/>
	<path d="M2303,1v1438H1V1H2303 M2304,0H0v1440h2304V0L2304,0z"/>
</g>
<g>
	<polygon class="st1" points="226.4,364.1 175.7,438.2 178.2,348.4 93.6,378.5 148.3,307.3 62.2,282 148.3,256.6 93.6,185.4 
		178.2,215.5 175.7,125.8 226.4,199.9 277.2,125.8 274.7,215.5 359.3,185.4 304.5,256.6 390.7,282 304.5,307.3 359.3,378.5 
		274.7,348.4 277.2,438.2 	"/>
	<path class="st2" d="M181.1,142.6l37,54.1l8.2,12l8.2-12l37-54.1l-1.8,65.5l-0.4,14.6l13.8-4.9l61.7-22l-40,51.9l-8.9,11.6l14,4.1
		L373,282l-62.9,18.5l-14,4.1l8.9,11.6l40,51.9l-61.7-22l-13.8-4.9l0.4,14.6l1.8,65.5l-37-54.1l-8.2-12l-8.2,12l-37,54.1l1.8-65.5
		l0.4-14.6l-13.8,4.9l-61.7,22l40-51.9l8.9-11.6l-14-4.1L79.9,282l62.9-18.5l14-4.1l-8.9-11.6l-40-51.9l61.7,22l13.8,4.9l-0.4-14.6
		L181.1,142.6 M282.7,108.9L226.4,191l-56.2-82.1l2.8,99.4L79.2,175l60.7,78.8L44.5,282l95.4,28.1l-60.7,78.8l93.7-33.3l-2.8,99.4
		l56.2-82.1l56.2,82.1l-2.8-99.4l93.7,33.3l-60.7-78.8l95.4-28.1l-95.4-28.1l60.7-78.8l-93.7,33.3L282.7,108.9L282.7,108.9z"/>
</g>
<g>
	<polygon class="st1" points="2055.4,364.1 2004.7,438.2 2007.2,348.4 1922.6,378.5 1977.3,307.3 1891.2,282 1977.3,256.6 
		1922.6,185.4 2007.2,215.5 2004.7,125.8 2055.4,199.9 2106.2,125.8 2103.7,215.5 2188.3,185.4 2133.5,256.6 2219.7,282 
		2133.5,307.3 2188.3,378.5 2103.7,348.4 2106.2,438.2 	"/>
	<path class="st2" d="M2010.1,142.6l37,54.1l8.2,12l8.2-12l37-54.1l-1.8,65.5l-0.4,14.6l13.8-4.9l61.7-22l-40,51.9l-8.9,11.6l14,4.1
		L2202,282l-62.9,18.5l-14,4.1l8.9,11.6l40,51.9l-61.7-22l-13.8-4.9l0.4,14.6l1.8,65.5l-37-54.1l-8.2-12l-8.2,12l-37,54.1l1.8-65.5
		l0.4-14.6l-13.8,4.9l-61.7,22l40-51.9l8.9-11.6l-14-4.1l-62.9-18.5l62.9-18.5l14-4.1l-8.9-11.6l-40-51.9l61.7,22l13.8,4.9
		l-0.4-14.6L2010.1,142.6 M2111.7,108.9l-56.2,82.1l-56.2-82.1l2.8,99.4l-93.7-33.3l60.7,78.8l-95.4,28.1l95.4,28.1l-60.7,78.8
		l93.7-33.3l-2.8,99.4l56.2-82.1l56.2,82.1l-2.8-99.4l93.7,33.3l-60.7-78.8l95.4-28.1l-95.4-28.1l60.7-78.8l-93.7,33.3L2111.7,108.9
		L2111.7,108.9z"/>
</g>
<g>
	<linearGradient id="SVGID_1_" gradientUnits="userSpaceOnUse" x1="177.7773" y1="282.3494" x2="2101.2227" y2="282.3494">
		<stop  offset="0" style="stop-color:#FF0000"/>
		<stop  offset="0.5254" style="stop-color:#1A00FF"/>
		<stop  offset="1" style="stop-color:#FF0000"/>
	</linearGradient>
	<polygon class="st3" points="654.5,532 177.8,282.3 654.5,32.7 1624.5,32.7 2101.2,282.3 1624.5,532 	"/>
	<path class="st2" d="M1623.3,37.7l467.2,244.7L1623.3,527H655.7L188.6,282.3L655.7,37.7H1623.3 M1625.8,27.7H653.2L167,282.3
		L653.2,537h972.5L2112,282.3L1625.8,27.7L1625.8,27.7z"/>
</g>
<g>
	<g>
		<path d="M192.5,987.2c-19.3-2.2-33.6,16.7-31.4,34.8c2.5,20.5,19.9,34.3,38.4,40.3c16.9,5.5,42,9.3,54.6-6.7
			c10.1-12.8,6.9-32.1-1.9-44.6c-13.7-19.3-39.7-24.1-61.4-28.1c-1.9-0.3-2.7,2.5-0.8,2.9c17.1,3.1,35.3,6.4,49.7,16.9
			c12.5,9.1,20.5,25.4,16.8,41c-4.7,19.5-25.7,21.8-42.5,18.9c-18.2-3.1-37.3-11.2-46-28.5c-4.7-9.3-5.9-20.6-0.8-30
			c5-9.2,14.8-15.3,25.4-14.1C194.4,990.4,194.4,987.4,192.5,987.2L192.5,987.2z"/>
	</g>
</g>
<g>
	<g>
		<path d="M213.5,1068.1c-0.9,37.1-1.8,74.3-2.7,111.4c-0.2,8.9,0.6,18.6-1.2,27.3c-1.9,9.1-9.7,16.5-15.4,23.5
			c-11.7,14.6-23.4,29.1-35,43.7c-13.4,16.6-26.7,33.3-40.1,49.9c-1.2,1.5,0.9,3.6,2.1,2.1c24.4-30.4,48.8-60.8,73.2-91.2
			c5.3-6.5,11.7-13,15.6-20.5c3.5-6.7,3.2-14.4,3.4-21.8c0.5-19.6,0.9-39.1,1.4-58.7c0.5-21.9,1.1-43.8,1.6-65.6
			C216.6,1066.1,213.6,1066.1,213.5,1068.1L213.5,1068.1z"/>
	</g>
</g>
<g>
	<g>
		<path d="M204,1220.1c12.7,40.8,37.7,77.2,71.2,103.7c1.5,1.2,3.6-0.9,2.1-2.1c-33.2-26.2-57.9-62-70.5-102.4
			C206.3,1217.5,203.4,1218.3,204,1220.1L204,1220.1z"/>
	</g>
</g>
<g>
	<g>
		<path d="M143,1112.4c47.9,2.6,95.8,5.8,143.6,9.5c1.9,0.2,1.9-2.9,0-3c-47.8-3.7-95.7-6.9-143.6-9.5
			C141,1109.3,141,1112.3,143,1112.4L143,1112.4z"/>
	</g>
</g>
<g>
	<g>
		<path d="M886.5,987.2c-19.3-2.2-33.6,16.7-31.4,34.8c2.5,20.5,19.9,34.3,38.4,40.3c16.9,5.5,42,9.3,54.6-6.7
			c10.1-12.8,6.9-32.1-1.9-44.6c-13.7-19.3-39.7-24.1-61.4-28.1c-1.9-0.3-2.7,2.5-0.8,2.9c17.1,3.1,35.3,6.4,49.7,16.9
			c12.5,9.1,20.5,25.4,16.8,41c-4.7,19.5-25.7,21.8-42.5,18.9c-18.2-3.1-37.3-11.2-46-28.5c-4.7-9.3-5.9-20.6-0.8-30
			c5-9.2,14.8-15.3,25.4-14.1C888.4,990.4,888.4,987.4,886.5,987.2L886.5,987.2z"/>
	</g>
</g>
<g>
	<g>
		<path d="M907.5,1068.1c-0.9,37.1-1.8,74.3-2.7,111.4c-0.2,8.9,0.6,18.6-1.2,27.3c-1.9,9.1-9.7,16.5-15.4,23.5
			c-11.7,14.6-23.4,29.1-35,43.7c-13.4,16.6-26.7,33.3-40.1,49.9c-1.2,1.5,0.9,3.6,2.1,2.1c24.4-30.4,48.8-60.8,73.2-91.2
			c5.3-6.5,11.7-13,15.6-20.5c3.5-6.7,3.2-14.4,3.4-21.8c0.5-19.6,0.9-39.1,1.4-58.7c0.5-21.9,1.1-43.8,1.6-65.6
			C910.6,1066.1,907.6,1066.1,907.5,1068.1L907.5,1068.1z"/>
	</g>
</g>
<g>
	<g>
		<path d="M898,1220.1c12.7,40.8,37.7,77.2,71.2,103.7c1.5,1.2,3.6-0.9,2.1-2.1c-33.2-26.2-57.9-62-70.5-102.4
			C900.3,1217.5,897.4,1218.3,898,1220.1L898,1220.1z"/>
	</g>
</g>
<g>
	<g>
		<path d="M845,1116.9c48,4.1,95.8,9.1,143.6,15.1c1.9,0.2,1.9-2.8,0-3c-47.8-5.9-95.6-11-143.6-15.1
			C843,1113.7,843,1116.7,845,1116.9L845,1116.9z"/>
	</g>
</g>
<g>
	<g>
		<path d="M1362.5,992.2c-19.3-2.2-33.6,16.7-31.4,34.8c2.5,20.5,19.9,34.3,38.4,40.3c16.9,5.5,42,9.3,54.6-6.7
			c10.1-12.8,6.9-32.1-1.9-44.6c-13.7-19.3-39.7-24.1-61.4-28.1c-1.9-0.3-2.7,2.5-0.8,2.9c17.1,3.1,35.3,6.4,49.7,16.9
			c12.5,9.1,20.5,25.4,16.8,41c-4.7,19.5-25.7,21.8-42.5,18.9c-18.2-3.1-37.3-11.2-46-28.5c-4.7-9.3-5.9-20.6-0.8-30
			c5-9.2,14.8-15.3,25.4-14.1C1364.4,995.4,1364.4,992.4,1362.5,992.2L1362.5,992.2z"/>
	</g>
</g>
<g>
	<g>
		<path d="M1383.5,1073.1c-0.9,37.1-1.8,74.3-2.7,111.4c-0.2,8.9,0.6,18.6-1.2,27.3c-1.9,9.1-9.7,16.5-15.4,23.5
			c-11.7,14.6-23.4,29.1-35,43.7c-13.4,16.6-26.7,33.3-40.1,49.9c-1.2,1.5,0.9,3.6,2.1,2.1c24.4-30.4,48.8-60.8,73.2-91.2
			c5.3-6.5,11.7-13,15.6-20.5c3.5-6.7,3.2-14.4,3.4-21.8c0.5-19.6,0.9-39.1,1.4-58.7c0.5-21.9,1.1-43.8,1.6-65.6
			C1386.6,1071.1,1383.6,1071.1,1383.5,1073.1L1383.5,1073.1z"/>
	</g>
</g>
<g>
	<g>
		<path d="M1374,1225.1c12.7,40.8,37.7,77.2,71.2,103.7c1.5,1.2,3.6-0.9,2.1-2.1c-33.2-26.2-57.9-62-70.5-102.4
			C1376.3,1222.5,1373.4,1223.3,1374,1225.1L1374,1225.1z"/>
	</g>
</g>
<g>
	<g>
		<path d="M1321,1121.9c48,4.1,95.8,9.1,143.6,15.1c1.9,0.2,1.9-2.8,0-3c-47.8-5.9-95.6-11-143.6-15.1
			C1319,1118.7,1319,1121.7,1321,1121.9L1321,1121.9z"/>
	</g>
</g>
<g>
	<g>
		<path d="M2056.5,992.2c-19.3-2.2-33.6,16.7-31.4,34.8c2.5,20.5,19.9,34.3,38.4,40.3c16.9,5.5,42,9.3,54.6-6.7
			c10.1-12.8,6.9-32.1-1.9-44.6c-13.7-19.3-39.7-24.1-61.4-28.1c-1.9-0.3-2.7,2.5-0.8,2.9c17.1,3.1,35.3,6.4,49.7,16.9
			c12.5,9.1,20.5,25.4,16.8,41c-4.7,19.5-25.7,21.8-42.5,18.9c-18.2-3.1-37.3-11.2-46-28.5c-4.7-9.3-5.9-20.6-0.8-30
			c5-9.2,14.8-15.3,25.4-14.1C2058.4,995.4,2058.4,992.4,2056.5,992.2L2056.5,992.2z"/>
	</g>
</g>
<g>
	<g>
		<path d="M2077.5,1073.1c-0.9,37.1-1.8,74.3-2.7,111.4c-0.2,8.9,0.6,18.6-1.2,27.3c-1.9,9.1-9.7,16.5-15.4,23.5
			c-11.7,14.6-23.4,29.1-35,43.7c-13.4,16.6-26.7,33.3-40.1,49.9c-1.2,1.5,0.9,3.6,2.1,2.1c24.4-30.4,48.8-60.8,73.2-91.2
			c5.3-6.5,11.7-13,15.6-20.5c3.5-6.7,3.2-14.4,3.4-21.8c0.5-19.6,0.9-39.1,1.4-58.7c0.5-21.9,1.1-43.8,1.6-65.6
			C2080.6,1071.1,2077.6,1071.1,2077.5,1073.1L2077.5,1073.1z"/>
	</g>
</g>
<g>
	<g>
		<path d="M2068,1225.1c12.7,40.8,37.7,77.2,71.2,103.7c1.5,1.2,3.6-0.9,2.1-2.1c-33.2-26.2-57.9-62-70.5-102.4
			C2070.3,1222.5,2067.4,1223.3,2068,1225.1L2068,1225.1z"/>
	</g>
</g>
<g>
	<g>
		<path d="M2015,1121.9c48,4.1,95.8,9.1,143.6,15.1c1.9,0.2,1.9-2.8,0-3c-47.8-5.9-95.6-11-143.6-15.1
			C2013,1118.7,2013,1121.7,2015,1121.9L2015,1121.9z"/>
	</g>
</g>
<g>
	<g>
		<path d="M840.4,792.9c58.5-1.2,117.1-2.4,175.6-3.5c1.9,0,1.9-3,0-3c-58.5,1.2-117.1,2.4-175.6,3.5
			C838.4,790,838.4,793,840.4,792.9L840.4,792.9z"/>
	</g>
</g>
<g>
	<g>
		<path d="M1015,785.4c5.3-13,11.4-25.6,18.3-37.8c6.1-10.7,12.6-22.4,21.4-31.3c10.1-10.2,23.3-11.2,37-11.4
			c13.9-0.2,27.9-0.3,41.9-0.4c28.6-0.3,57.1-0.6,85.7-0.8c27.3-0.3,54.9-1.6,82.2-0.5c11.7,0.5,23.9,2.2,34.1,8.4
			c10.5,6.4,17.1,17.2,20.8,28.8c3.3,10.3,4,20.9,5.3,31.5c1.1,8.9,2.7,18.5,8.2,25.9c5.7,7.7,14.4,10.2,23.6,10.3
			c13.6,0,27.2-1.4,40.8-1.5c13.6,0,27.4,0.2,40.9,1.5c5.3,0.5,11,1.4,15.5,4.6c5.6,4,7.1,10.8,8.1,17.2c3.2,21,5.3,46.3-7.4,64.8
			c-13.3,19.5-38.9,21.9-60.1,16.4c-23.7-6.1-43.1-22.1-63.8-34.4c-20.9-12.4-43.8-19.8-68.2-20c-11.7-0.1-23.5,1.4-34.8,4.5
			c-12.5,3.4-24.2,9-35.8,14.7c-23,11.2-46.2,19.5-71.8,21.9c-23.7,2.2-47.7-0.1-70.5-6.8c-23.3-6.8-42.9-19.1-63.3-31.8
			c-18.1-11.4-38.5-22-60.6-18.2c-21.9,3.8-39,19.8-55.9,33c-17.6,13.8-43.7,28.9-66.4,18.3c-22.6-10.5-25.4-38.8-24.7-60.6
			c0.4-13.2,1.3-26.3-0.5-39.4c-0.5,0.6-1,1.3-1.4,1.9c12.2-0.8,24.4-1.6,36.5-2.4c1.9-0.1,1.9-3.1,0-3c-12.2,0.8-24.4,1.6-36.5,2.4
			c-1.1,0.1-1.6,0.9-1.4,1.9c3.6,25.9-4.4,53.1,5.7,78.1c7.9,19.5,25.8,30.1,46.8,26.8c24.3-3.8,42.2-20.8,61-35.1
			c9.7-7.3,20-14.2,31.8-17.6c12.3-3.5,24.9-2.3,36.8,2.1c23.5,8.6,42.5,25.9,65.1,36.5c21.6,10.2,45.2,16,69,17.4
			c24.5,1.5,49.4-1.8,72.5-9.8c25.5-8.9,47.9-24.7,74.8-29.6c27.1-5,55.4-0.8,79.9,11.7c22.3,11.4,41.7,28.5,65.3,37.4
			c18.6,7.1,41.7,9.3,59.4-1.5c18.3-11.2,23.9-32.6,23.9-52.9c0-10.5-0.9-21.6-3.1-31.9c-2.3-10.5-9-16.6-19.5-18.6
			c-12.4-2.3-25.7-2.1-38.3-2.3c-14.8-0.2-29.6,0.5-44.4,1.2c-6.7,0.3-13.7,0.5-19.7-2.9c-5.1-2.9-8.5-7.8-10.5-13.2
			c-3.8-10-3.9-20.9-5.3-31.4c-2.9-21.4-11.7-43.2-33-51.9c-10.1-4.1-21.1-5.2-31.9-5.4c-14.4-0.3-28.8,0.1-43.1,0.3
			c-29.9,0.3-59.8,0.6-89.7,0.9c-14.6,0.1-29.2,0.3-43.8,0.4c-14.3,0.1-29-0.7-43.3,0.9c-11.2,1.2-20.4,5.6-27.9,14
			c-8.5,9.7-15.2,21.5-21.4,32.7c-6.3,11.4-11.9,23.2-16.8,35.3C1011.4,786.4,1014.3,787.2,1015,785.4L1015,785.4z"/>
	</g>
</g>
<g>
	<g>
		<path d="M960,858.5c-22-4.6-43.3,8.7-51.9,28.9c-7.4,17.4-8.5,46.8,12,55.9c11.4,5.1,25.4,7.4,37.9,8.3
			c11.9,0.8,23.9-0.7,34.7-5.8c21.9-10.4,28.7-33.4,29.6-56c0.5-13.7-9.6-21.3-20.9-27c-12.1-6.1-25.6-8.6-39.1-7.5
			c-1.9,0.2-1.9,3.2,0,3c10.3-0.9,20.6,0.4,30.4,4c9.1,3.4,23.1,9.9,26,20.1c1.4,4.9,0.5,10.6-0.1,15.6c-0.6,5.5-1.6,10.9-3.1,16.2
			c-3.1,10.2-8.8,19.1-17.7,25.2c-18.7,12.6-42.5,10.3-63.2,5.2c-11.3-2.8-21.4-6.1-25.7-17.9c-3.4-9.3-3.1-20.2-0.7-29.7
			c5.7-22.7,27-40.5,51.1-35.5C961.1,861.8,961.9,858.9,960,858.5L960,858.5z"/>
	</g>
</g>
<g>
	<g>
		<path d="M1298.4,870.9c-26.8-1.1-58.7-1.1-75.5,23.8c-6.4,9.5-8.8,21.5-4.4,32.3c4.5,11.1,14.7,18.7,25.2,23.7
			c27.8,13.2,60.8,14.1,91,12.6c13.6-0.7,28-2.6,38.5-12c9.2-8.3,12-20.5,7.2-32c-6.1-14.7-20.6-22.4-34.4-28.6
			c-17.8-8-35.8-15.8-53.6-23.7c-1.8-0.8-3.3,1.8-1.5,2.6c13.8,6.1,27.6,12.2,41.5,18.3c12.1,5.3,25.4,10.1,35.4,19
			c9.7,8.7,16.1,23,9.1,35.3c-7,12.3-21.6,16.4-34.7,17.7c-27.3,2.6-56.6,1.6-82.9-6.4c-11.4-3.5-23.1-8.5-31.4-17.4
			c-8.6-9.2-10.9-21.8-5.8-33.4c13-29.6,49-29.7,76.4-28.6C1300.3,874,1300.3,871,1298.4,870.9L1298.4,870.9z"/>
	</g>
</g>
<g>
	<g>
		<path class="st4" d="M812.3,791.7c-4.7-0.4-9.8-0.8-14,1.6c-3.1,1.7-6.7,5.1-6.4,9c0.6,9.2,15.8,11,22.7,10.9c1.9,0,1.9-3,0-3
			c-4.8,0.1-17.2-1.1-19.2-6.5c-1.6-4.3,3.7-7.8,7.2-8.7c3.2-0.8,6.6-0.5,9.8-0.2C814.2,794.9,814.2,791.9,812.3,791.7L812.3,791.7z
			"/>
	</g>
</g>
<g>
	<g>
		<path class="st4" d="M796.9,785.6c-5.6-4.2-11-8.7-16.1-13.5c-1.4-1.3-3.5,0.8-2.1,2.1c5.3,5,10.8,9.6,16.7,14
			C796.9,789.3,798.4,786.7,796.9,785.6L796.9,785.6z"/>
	</g>
</g>
<g>
	<g>
		<path class="st4" d="M786.1,799.4c-11.6-0.5-22.9-2.8-33.8-6.9c-1.8-0.7-2.6,2.2-0.8,2.9c11.1,4.2,22.7,6.5,34.6,7
			C788,802.5,788,799.5,786.1,799.4L786.1,799.4z"/>
	</g>
</g>
<g>
	<g>
		<path class="st4" d="M800.9,815.3c-4.5,0.2-8.4,2.8-12.3,4.8c-5.2,2.7-10.3,5.6-15.1,8.9c-1.6,1.1-0.1,3.7,1.5,2.6
			c3.8-2.6,7.8-5,11.9-7.2c4.1-2.2,9.3-5.9,14.1-6.1C802.8,818.2,802.8,815.2,800.9,815.3L800.9,815.3z"/>
	</g>
</g>
<g>
	<g>
		<path class="st5" d="M1495.8,815.1c4.4-0.3,8.9-0.4,13.3,0.1c4.2,0.4,9.7,0.7,13.1,3.6c6.6,5.6-1.2,11-6.6,12.5
			c-4.8,1.3-9.8,0.9-14.7,0.6c-1.9-0.2-1.9,2.8,0,3c7.6,0.6,29.3,0.3,26.8-12.7c-2.3-12-23.3-10.6-31.9-9.9
			C1493.9,812.3,1493.8,815.3,1495.8,815.1L1495.8,815.1z"/>
	</g>
</g>
<g>
	<g>
		<path class="st5" d="M1504.5,819.6c1.5,0.8,2.7,2.4,3.9,3.6c1.4,1.3,3.4-0.7,2.1-2.1c-1.2-1.4-2.5-2.9-3.7-4.3
			c-0.4,0.9-0.7,1.7-1.1,2.6c2.5,0.2,4.9,1.2,7.4,1.6c1.2,0.2,2.4-1,1.7-2.2c-1.5-2.6-4.2-4.1-7.2-4.2c-1.9,0-1.9,3,0,3
			c1.9,0,3.6,1,4.6,2.7c0.6-0.7,1.1-1.5,1.7-2.2c-2.8-0.4-5.4-1.5-8.2-1.7c-1.4-0.1-1.8,1.7-1.1,2.6c1.2,1.4,2.5,2.9,3.7,4.3
			c0.7-0.7,1.4-1.4,2.1-2.1c-1.4-1.3-2.8-3.1-4.5-4C1504.4,816.1,1502.8,818.7,1504.5,819.6L1504.5,819.6z"/>
	</g>
</g>
<g>
	<g>
		<path class="st5" d="M1497.7,817c4.9-0.1,9.8,0.1,14.6,0.9c2.9,0.5,12,2.8,9.9,6.6c-1.3,2.5-10.1,7-12.8,5.4
			c-3-1.8-1.5-9.2-1.1-12.1c-1,0.1-2,0.3-2.9,0.4c0.8,3.3,1.6,6.5,2.3,9.8c0.4,1.7,2.8,1.2,2.9-0.4c0.1-1,0.2-2.1,0.3-3.1
			c-1,0-2,0-3,0c0,2.2,0,4.4-0.2,6.7c1-0.1,2-0.3,2.9-0.4c-0.2-0.5-0.3-0.9-0.5-1.4c-0.3,0.6-0.7,1.2-1,1.8c2.7-0.5,5.9-0.3,8.3-1.9
			c1.8-1.2,2.9-4.9,4.5-5.6c1.1-0.5,0.8-2,0-2.6c-2.5-1.9-8.2-4.9-11.4-2.8c-2.2,1.5-3.1,5.7-1.3,7.8c4.5,5.2,9.2-5.6,2.7-5.6
			c-0.7,0-1.2,0.5-1.4,1.1c-0.9,2.9-1.2,8.3,3.3,7.1c3.7-0.9,6.1-6.4,2.1-8.3c-1.7-0.8-3.2,1.6-1.5,2.6c2.3,1.4,4.5,2.5,7.2,3
			c1,0.2,1.9-0.4,1.9-1.4c0-0.4,0-0.7,0-1.1c0-1.2-1.3-1.9-2.3-1.3c-2.8,1.6-5.4,3.2-8.9,1.5c-1.4-0.6-2.8-2-4.1-2.9
			c-2.7-1.9-5.6-3.6-8.5-5.3c-1.3-0.7-2.9,0.8-2.1,2.1c2.5,4,2.9,8.3,4.2,12.7c0.5,1.5,1.2,3.3,3.1,3c1.4-0.2,2.1-1.5,2.2-2.8
			c0.2-1.8-0.9-4.1-1.3-5.8c-0.6-2.9-0.9-5.9-1-8.9c-0.1-1.9-3.1-1.9-3,0c0.1,2.4,0.3,4.8,0.7,7.2c0.1,0.7,1.6,7.4,2.2,6.5
			c0.6-0.9-1.3-5.7-1.6-6.8c-0.7-2.4-1.5-4.5-2.9-6.6c-0.7,0.7-1.4,1.4-2.1,2.1c4.6,2.6,9.1,7,14,8.9c3.7,1.4,7.3-0.4,10.5-2.2
			c-0.8-0.4-1.5-0.9-2.3-1.3c0,0.4,0,0.7,0,1.1c0.6-0.5,1.3-1,1.9-1.4c-2.4-0.5-4.4-1.5-6.4-2.7c-0.5,0.9-1,1.7-1.5,2.6
			c-0.8,2.7-1.2,3.3-1.1,1.7c0-0.8,0-1.5,0.1-2.3c-0.5,0.4-1,0.7-1.4,1.1c0.7-2.8,2.2-3.4,4.6-2.1c1.4,0.5,2.7,1.2,3.9,2.2
			c0-0.9,0-1.7,0-2.6c-1.4,0.6-1.5,1.6-2.3,2.9c-2.2,3.5-6,3.7-9.7,4.3c-0.7,0.1-1.3,1.1-1,1.8c0.2,0.5,0.3,0.9,0.5,1.4
			c0.6,1.6,2.8,1.3,2.9-0.4c0.2-2.2,0.2-4.4,0.2-6.7c0-2-2.8-1.9-3,0c-0.1,1-0.2,2.1-0.3,3.1c1-0.1,2-0.3,2.9-0.4
			c-0.8-3.3-1.6-6.5-2.3-9.8c-0.4-1.8-2.8-1.2-2.9,0.4c-0.5,3.9-1.2,9.2-0.1,13c0.5,1.6,0.9,1.8,2.5,2.2c5.3,1.1,14.1-2.4,17.3-6.8
			c2.3-3.2-1-6.4-3.7-8.3c-6.2-4.2-16.5-4-23.6-3.8C1495.7,814,1495.7,817,1497.7,817L1497.7,817z"/>
	</g>
</g>
<g>
	<g>
		<path class="st5" d="M1520.1,824.2c-0.5,0.4-0.9,0.7-1.4,1.1c-0.6,0.5-1,1.3-0.5,2.1c0.4,0.6,1.4,1,2.1,0.5
			c0.5-0.4,0.9-0.7,1.4-1.1c0.6-0.5,1-1.3,0.5-2.1C1521.8,824.1,1520.8,823.7,1520.1,824.2L1520.1,824.2z"/>
	</g>
</g>
<g>
	<g>
		<path class="st5" d="M1503.8,832c0-0.3,0-0.6,0-0.9c0-0.8-0.7-1.5-1.5-1.5c-0.8,0-1.5,0.7-1.5,1.5c0,0.3,0,0.6,0,0.9
			c0,0.8,0.7,1.5,1.5,1.5C1503.1,833.5,1503.8,832.9,1503.8,832L1503.8,832z"/>
	</g>
</g>
<g>
	<g>
		<path class="st4" d="M809.6,794.6c-0.2,5,0.4,9.9,0.2,14.9c-0.1,1.4,2.2,2.1,2.8,0.8c0.4-1,0.6-1.4,0.6-2.6c-1,0-2,0-3,0
			c0,0.6,0,1.2,0,1.8c0,1.9,3,1.9,3,0c0-0.6,0-1.2,0-1.8c0-1.9-2.9-1.9-3,0c-0.1,0.3-0.2,0.7-0.2,1c0.9,0.3,1.9,0.5,2.8,0.8
			c0.2-5-0.4-9.9-0.2-14.9C812.7,792.7,809.7,792.7,809.6,794.6L809.6,794.6z"/>
	</g>
</g>
<g>
	<g>
		<path class="st4" d="M809.1,793.6c-3.8-0.1-7.3,0.4-10.6,2.3c-1.9,1.1-4.9,4.1-4.6,6.5c0.4,2.8,4.8,5.9,7.1,7.2
			c2.7,1.4,6.7,1.9,9.6,0.9c0.5-0.2,1-0.5,1-1c0.3-1.9-0.3-4-0.6-5.8c-0.3-2.2-0.2-5-1-7c-1.1-2.6-5.9-1.1-7.8-0.6
			c-2.7,0.7-6.2,2.5-6.3,5.7c0,3,3,4.6,5.6,5.2c2.5,0.5,5.8,0.3,6.8-2.5c0.9-2.5-0.2-5.1-2.7-6c-2.3-0.8-5.8-0.3-6.4,2.5
			c-0.8,4,4.4,2.7,6.4,3.6c-0.3-0.3-0.7-0.7-1-1c0.5,1.2,0.6,2.1-0.9,2.4c-1.6,0.3-1.3,3.1,0.4,2.9c1.6-0.2,4.3-0.1,5.2-1.8
			c0.9-1.7,0-5.2-0.4-7c-1.2-5.5-6.8-1.9-9.9,0.1c-1.1,0.7-0.9,2.4,0.4,2.7c2.1,0.6,6.6,1.8,6.9-1.5c0-0.5-0.3-1.1-0.7-1.3
			c-0.1-0.1-0.2-0.1-0.3-0.2c-0.5,0.9-1,1.7-1.5,2.6c2.6,1.2,4.8,2.8,5.5,5.7c0.5,1.9,3.4,1.1,2.9-0.8c-0.9-3.6-3.6-5.9-6.9-7.4
			c-1.7-0.8-3.3,1.7-1.5,2.6c0.1,0.1,0.2,0.1,0.3,0.2c-0.2-0.4-0.5-0.9-0.7-1.3c0,0.1,0,0.3,0,0.4c0.2-0.4,0.5-0.9,0.7-1.3
			c-0.9,0.4-2.9-0.3-3.8-0.6c0.1,0.9,0.2,1.8,0.4,2.7c1.4-0.9,2.8-1.5,4.3-2.3c1.1-0.6,0.9-0.8,1.2,0.4c0.3,1.2,0.3,2.5,0.5,3.8
			c-0.1,1.1,0,1.4,0.2,0.8c-0.8,0.2-1.7,0.3-2.6,0.4c0.1,1,0.3,2,0.4,2.9c2.1-0.4,3.3-1.4,3.4-3.6c0.1-1.7-0.4-3.3-2.1-3.7
			c-0.5-0.1-1.4,0-1.8,0c-0.6-0.1-1.3-0.1-1.9-0.2c0.6,0,1.1,0,1.7,0c3.5,1.1,0.6,2.8-0.8,3c-0.8,0.1-2-0.3-2.7-0.7
			c-3.2-1.8,1-3.9,2.8-4.4c1.4-0.4,3.7-1.1,5.1-0.6c-0.3-0.3-0.7-0.7-1-1c0.6,1.6,0.6,3.7,0.8,5.4c0.2,1.8,1.1,4.2,0.8,6
			c0.3-0.3,0.7-0.7,1-1c-1.8,0.6-4.7,0.4-6.4-0.2c-1.8-0.7-5.5-3.1-6-5.1c-0.5-1.9,2.2-3.6,3.8-4.4c2.7-1.2,5.1-1.4,8-1.4
			C811,796.6,811,793.6,809.1,793.6L809.1,793.6z"/>
	</g>
</g>
<g>
	<g>
		<path class="st4" d="M812.7,808.2c0.7-2.9,0.3-5.8,0-8.7c-0.2-1.9-3.2-1.9-3,0c0.2,2.6,0.7,5.3,0.1,7.9
			C809.3,809.2,812.2,810,812.7,808.2L812.7,808.2z"/>
	</g>
</g>
<g>
	<g>
		<path class="st4" d="M808.9,806.1c0.9-0.3-1.4-1.3-1.9-1.3c-1.1-0.2-2.1,0-3.2-0.3c-0.9-0.2-1.5-0.4-2.3,0.3
			c-0.7,0.7-1,1.9-1.3,2.7c0.9-0.1,1.8-0.2,2.7-0.4c-0.1-0.2-0.2-0.3-0.3-0.5c-0.5-1.9-3.4-1.1-2.9,0.8c0.2,0.5,0.3,0.8,0.6,1.2
			c0.8,1.1,2.3,0.9,2.7-0.4c0.1-0.3,0.3-0.7,0.4-1c0.2-0.5,0.2-0.6,0.1-0.3c-0.5,0-1,0-1.5,0c1.4,0.7,2.8,0.3,4.2,0.7
			c1.3,0.4,1.7,1.9,3.3,1.3C811.5,808.3,810.7,805.4,808.9,806.1L808.9,806.1z"/>
	</g>
</g>
<g>
	<g>
		<g>
			<g>
				<g>
					<path class="st6" d="M24,1328.3c-2.3,0.9-1,2.8,5.5,2.4l4.6-3.3L24,1328.3z"/>
					<path class="st6" d="M67.5,1334.5c7.6-1.6,16.4-4.4,11.5-7.5c-7.5,3.2-9.4,1.9-17.5,5.6c-6.5,0.4-11.3-1.1-10.2-2.3
						c-2.3,0.8-10.1-0.7-13.5,1.3c8.4,2.6,19.1,2.7,30.3,0.5C70.4,1333,68.1,1333.9,67.5,1334.5z"/>
					<path class="st6" d="M700.3,1339.6l-4.1-0.4C697.4,1339.5,698.8,1339.6,700.3,1339.6z"/>
					<path class="st6" d="M1092.4,1341.5c-3,0.1-4.2,0.4-4.4,0.7C1090.8,1341.9,1093,1341.7,1092.4,1341.5z"/>
					<path class="st6" d="M1159.3,1345.1c-1.4-0.1-2.6-0.2-3.9-0.2C1156.9,1345.2,1158.4,1345.4,1159.3,1345.1z"/>
					<path class="st6" d="M700.3,1339.6l10.5,1C711.5,1339.6,705.4,1339.9,700.3,1339.6z"/>
					<path class="st6" d="M154.8,1326.5c-2.2,0.2-4,0.5-5.7,0.9c1.8-0.1,3.5-0.3,5.3-0.4C154.6,1326.8,154.6,1326.7,154.8,1326.5z"
						/>
					<path class="st6" d="M527.5,1342.3l-3.2,0c-0.9,0.4-1.8,0.8-2.6,1.3L527.5,1342.3z"/>
					<path class="st6" d="M394.8,1342.8c3,0.1,4-2.7,5.2-3.9c-1.7,1.2-3.9,1.7-6.5,1.9C393.5,1341.4,393.8,1342,394.8,1342.8z"/>
					<path class="st6" d="M184.5,1337.9l-3.7,0.4C181.8,1338.2,183.4,1338,184.5,1337.9z"/>
					<path class="st6" d="M622.4,1342.9c0.2,0.4,0.7,0.8,1.2,1C623.6,1343.6,623.2,1343.2,622.4,1342.9z"/>
					<path class="st6" d="M177.8,1347.8c0.1-0.2,0-0.3,0-0.5C177,1347.6,176.8,1347.8,177.8,1347.8z"/>
					<path class="st6" d="M24,1334.3l2.1-0.2c0.2-0.5,0.5-1.1,0.5-1.6L24,1334.3z"/>
					<path class="st6" d="M1281.8,1348.7c-0.2,0-0.3,0-0.5-0.1C1278.1,1349,1279.9,1348.9,1281.8,1348.7z"/>
					<path class="st6" d="M2103.6,1321.6c12.7,2.6-20.8,3.1-1.6,6C2100.3,1326.5,2119.5,1323.3,2103.6,1321.6z"/>
					<path class="st6" d="M158.2,1326.9c1.8,0,3.6-0.1,5.4,0C161.2,1326.7,159.5,1326.7,158.2,1326.9z"/>
					<path class="st6" d="M2102.1,1327.6L2102.1,1327.6l2,0.3C2103.2,1327.8,2102.8,1327.7,2102.1,1327.6z"/>
					<path class="st6" d="M1564.1,1347c-0.6-0.5-1.7-0.9-2.9-1.2C1561.3,1346.1,1562,1346.4,1564.1,1347z"/>
					<path class="st6" d="M1353.8,1343l5.2,0.4C1356.9,1343.1,1355.3,1343,1353.8,1343z"/>
					<path class="st6" d="M1673.3,1343c2.8,0.2,3.8,0.6,7.7,0.2c-0.4-0.1-0.7-0.2-1.2-0.3C1678.3,1343.3,1676.5,1343.5,1673.3,1343z
						"/>
					<path class="st6" d="M1786.9,1343c-0.6-0.2-1.4-0.4-2.1-0.6c-1.1,0-2.4,0.1-3.6,0.2L1786.9,1343z"/>
					<path class="st6" d="M523.1,1345.6c-2.5-0.8-4-1.7-5.3-2.5C519.6,1345.1,502.9,1345.8,523.1,1345.6z"/>
					<path class="st6" d="M154.9,1328.1c0.7-0.7,1.6-1.1,3.4-1.2c-1.3,0-2.6,0.1-3.8,0.2C154.1,1327.4,154.1,1327.8,154.9,1328.1z"
						/>
					<path class="st6" d="M1677.9,1320.9l18.1,0.4C1690.9,1321,1684.3,1320.9,1677.9,1320.9z"/>
					<path class="st6" d="M1338.4,1343.9l-4.1,0.3C1335.8,1344.3,1337.3,1344.2,1338.4,1343.9z"/>
					<path class="st6" d="M1749.5,1320.9c3.2,1,6.6,1.6,10.2,1.9c0.7-0.2,1.6-0.4,2.1-0.7L1749.5,1320.9z"/>
					<path class="st6" d="M517.8,1343.1C517.9,1343.1,517.9,1343.1,517.8,1343.1C517.9,1343.1,517.9,1343.1,517.8,1343.1z"/>
					<path class="st6" d="M398.9,1350c17.2,0,8.1-3.6,11.7-5.8c20.5-1.1,9.5,2.7,16.5,4.6c12.8-1,22.6-4.4,32.2-4.3
						c0.7,0.6,2.6,0.8,0.4,1.6c13.5-3,40.2-0.2,56-4c1.2,0.3,1.8,0.6,2.1,0.9c-2.6-1.8-3-3.7-2.4-5.1c7.7-0.1,14.3-2.4,17.2,0
						c-4.7-0.1-5.1,0.9-7.3,1.7l8.1-1.1c7.3,3.5-11,1.2-11,3.8c15.8-1.2,34.1-4.1,46.2-3.1c2.5,3.4-28.2,1.2-12.1,4.2l-18.7-1.3
						c14.3,5.3-11.4-0.3,1.8,5.4c24.6,0.9,27.5-1.8,52-0.9c5.5-1.9-1.8-2.8,3.7-4.7c34.9-3.5,27.5,8.5,53.1,3.9
						c6.6-2.3,9.2-6.6,27.4-4.3l-6.2,3.9c23.8,0.3,13.6-5.5,38.5-3c-4.4,1.5-18.7,1.3-15.1,1.8c16.2,3,11.4-2.2,23.8-2.2l2.6,3.4
						c25.3-0.6,53.3-3.1,81.3-3.8c-1.6,1-6.4,2.1,0.2,3.1c35.4-1.8,75.6,0.3,109.7,2.2l13-3c3,0,5.6,1.3,2.3,1.9
						c13.3,1.1,0.7-1.9,7.1-3c7.6-0.2,10,1.7,5.2,2.6c23.5-2.5,66.9-5.5,91.6-2.4l-4.8,0.9c19.3,1.2,21.7-6.1,39.6-3.3l-3.4,0.5
						c41.8,1.2,88-1.5,119.9,2.9c6.1-4.2,41.4,1.8,44.1-4.1c23.9,2.9,17,4,50.7,5.9c9,0.3,13.4-3.7,24.5-4.3l0.3,3.1l15.1-3.2l8,3.7
						l10.4-0.8c-4.1-0.2-8.8-1.4-8.2-2.3c16.3-1.4,39.7,2.1,40.1,3.7l38.5-2.6c-0.9,1.2-7.3,1.7-12.4,2.5c20.5-3.2,3.7,3.2,22.6,0.3
						c-2.5-0.7,1.4-1.8,1.8-2.5c9.4,1.9,30.7,1.9,46.6,1.1l-3,2.1c28.5,0.5,60.2-1.1,92.2-1c-11.5-1-8.9-4.7,0.5-5l3.8,3.3
						c6.1-2-9.8-1.2,2.6-3.7c12,0.4,8,3.7,1.2,4.8l14.5-1.1c0.9,1-2.6,1.5-3.4,2.7c6-2,25.1,3.3,33.7-0.2l0.8,1
						c32,0,46.6-1.1,72.6-1.2c0.5-2.8,10.7-2.2,18.5-4.5c19.2,0.9,40.4,3.1,63.5,2.9c16.2-1.4,4.7-2.4,12-4
						c1.2,2.6,24.3,2.3,12.3,4.2c27.7-0.4,35.4-0.5,70.5-2.5c-3.8-1.1-8.1-1.5-5.9-2.4c6.4-0.4,14.5,1.1,13.6,2.3l-1.7,0.3
						c39.4-3.8,90.8,7.6,122.2,2.4l-1.8,0.3l32.5-2.7c14.9,0.5-9,1.9,2.1,3.5c35.1-4.2,55.4,0.8,84.3-1.9
						c22.3,7.7,79.3-0.1,109.4,5.1l-1.7-1.8c7.8-1.6,9.4,1.1,15.1,1.6c-0.8-1.4-8.4-1.7-3.6-2.6c5.7-0.1,11.5-0.2,17.2-0.1
						c2.9,0,5.8,0,8.7,0.1c1.4,0,2.9,0.1,4.3,0.1l2.1,0.1l0.9,0l0.4,0l-0.1,0l-0.1,0l0.1-1.2l0.1-1.3c0.2-1.7,0.4-3.4,0.7-5.1
						l0.2-1.3l0.1-0.6l0.1-0.3c-0.8,4.4,1.8-10.3-1.7,9.7c-0.9-0.2-2-0.5-3.2-1.1c-1.2-0.6-2.5-1.6-3.5-2.8c-1-1.2-1.7-2.7-2.1-3.9
						c-0.4-1.3-0.5-2.4-0.5-3.3l11.4-11.4c-55.5,0-113.2-3.4-169.2-4.8c-24.8-0.5-14.1,9.2-45.3,5l8.9-3.3
						c-50,4-102.2-0.1-151.1,3.2c2.9-0.8,3-1.8,7.8-1.7c-10.3-2.4-38.2-0.1-38.4,1.8c-7.6-0.2-1.8-1.8-6.5-2.8
						c-10.4-1.4-26,3.1-31.5,0.7c-0.9-0.4,2.9-0.8,4.8-1c-6.8,1.2-31.5-0.3-25,2.5c-18.4-1.3-35.1,1.2-49.8-0.4
						c-9.6,3.1-31.4-1.5-34.5,2.9c1.3-4.5-32.2-3.6-43.8-1.5c3.9-1.4-10.1-1.4-5.5-3.3c-13.2,0.1-25.4,0.9-23.1,3.2
						c-24.4-5.4-49.1,4.4-62.8-2.6c-39.4,2.4-75.8,4.1-111.2,5.1c1.3-4.5,39.1-0.4,37.6-5.2c-33.6,1.9-53,5.7-86.3,4.6
						c-8.6-0.6,4.9-2,7.8-2.7c-33.6,1.9-64.9-0.4-94.7,2c0.1-0.4,3.3-0.9,6.3-1.2c-5.9,0.1-13.7-0.7-13,1.4l5.7-0.6
						c9.4,3-23.4,6.2-24.4,7.8c10-5.9-29.5-1.5-13.6-8.9c-3.9,0.4-8.7,1.4-7.8,2.7c-5.7-0.4-7.6-1.2-1.7-2.8
						c-21.1,1.1-13.6,3.3-32.7,3.2c0.1-1,3.9-1.4,5.9-2.5c-9.7,1.9-19.4,3.9-35.5,3c1-0.6-0.9-1.4,3.9-1.4
						c-27.7,0.3-47.2,5.2-77.6,3.3c9-4.3-10.3-1.4-12-5.2l-16.4,1.1l6.6,1.8c-14.3-0.1-27,2.7-39.3,1.4l10.6-1.5l-26.8,0.7l15.2,1.4
						c-14.5,1.9,1.6,4.7-17.5,3.7c3.9-0.4-14.3,0-21.8-2.2c0,0,0,0,0,0c-7.1,1.2-14.4,2.4-25,1.5c-2.8-1.2,2.2-4.1,0.4-4.9
						c-7,3.1-33.5,0.9-42.4,4.2c3-0.8,3.1-2.7,2.1-3.1l-5.9,2.5c-6.6-0.8-7.6-1.2-6.5-2.8c-20-0.5,6.3,4.7-17.3,2.7
						c1.9-0.2,1-0.6,4.8-1c-23.8-1.1-46,1.6-67.8,0.4c-6.5-3.8,19.1-0.9,11.7-4.1c-31.5,0.7-65.3,4.5-95.8,3.6l5.7,0.4
						c-4.2,5.3-22.7-2.6-38.1-0.1c3.8-0.4,5-2.9,3.9-2.4c-20.9-0.9-42.7,1.3-74.4,3l3.9-1.4c-12.3-1.2-32.4-0.7-45.7-1.3
						c-3.9,1.4-11.6,1.1-6.9,3.1c-41-7.8-78.2,4.2-114.6-2.3c4.3,0,10.4-1.2,6.9-1.2l-31,1.3c2.5,2.3,4.1,1.4,10.6,3.2
						c-3.9,1.4-12.7,2.4-20.3,2.4c13.9-1.5-0.1-3.7-6.1-5c1,0.7-1.1,1.5-0.5,2.2c-16.2-4.1-2.7,4.6-24.8,1.9l1.2-1.2
						c-8.3,0.6-15.9,2.2-24.8,1.9c-3.7-2.7,8.8-1.2,9.4-3.4c-12.5,0.2-24.7,5.1-36.1,2.4c5.3-0.7,13-0.8,18.3-1.5
						c-12.3-3.1-13.8-2.3-23-2.8l0.9,0.1l-21.2-1.4l5.4,0.9c-15.7,7-31.9,1.3-53,5.8c20.5-4.3,3.4-2.5,5-5.5
						c-5.4-0.8-13.6-1.8-11.3-2.6c-10,2.4-16.7-1.9-30.7,1.6c-0.6-1-10.7-0.1-8.4-2.5c-13,0.8,3.1,1.7,2,2.9c-20,3.3-47-4-75.8,0.5
						c-24.8,1.9-29.4,5.2-52.4,6.8c-7.8-1.6,6.4-3.6,6.4-3.6c-12.5-1.4-22-1.2-33.8-0.1c2.4-0.9-0.1-1.6-3.7-2.7
						c-9.5,0.3-6.3,3.6-18.8,2.1c2.1-1.1,4.9-2.8,9.5-3.9c-11.2,0.9-22.2,2.7-33.8,3.6c-3.1-1.7,7-2.6,11.1-3.7
						c-13,0.8-33.7,1.5-37.7,4.2l8.3,1c-4.7,0.1-2.4-2.3,1.1-2.8c11.1-2.1,16.1,0.9,16.7,1.9l-8.2,0.6c8.5,5.7,33.1-0.9,49.7-0.6
						l-6.9,4.2l17-3.5c3.6,1.1,6.1,3.4-2.1,4c11.9,2.1,10.5-1.5,20.7,0.8c1.1,0.4,0.6,0.6-0.4,0.7l11.6-1.2
						c-2.3,0.9,1.9,2.9-5.2,2.3c20.8,2.4,33.6-3.1,41.5,0l-1.7,0.3c28.9-1.4,2.8-3.1,24.5-6.6l14.6,7.5l2.8-3.1
						c3,0.1,8.9,0.3,7.8,1.6c11.1-2.1-1.9-1.3,4.6-3.3c14.4,2.8,39.6-1.3,42.8,3.6c5.2-2.3-13.7-1.8,1.6-3.4
						c4.4,5.2,17.7-0.9,30.8,1.5c-4,2.7-16.5,1.3-3.3,3.7c7.9-4.6,25.5,1,36.6,0.1c0.5-3.6,24.1-1.5,42.6-2.7
						c-1.2,1.2,34.9,2,52.2,3.3l-0.5,0.6c3.3-3.7,21.2-3,34.1-3.7c-0.5,2.2-2.8,3.1-9.9,4l12.2,0c2.9-1.2,6.7-1.8,14.6-2.2l-3.1,2.7
						c16.2-0.2,32.7-3.2,53.6-1.4c1.2-2.6-16.6-7.1,5.5-8.8c0.8,1.4,1.6,3.8-4.1,4.3c1.9-0.2,6.8-1.2,10.6-0.6l-8.8,2.3
						c9.5,1,5-1.9,12.6-1.7c-0.2,2,5.6,1.4,4.5,3c-1.9,0.2-6.6-0.8-9.5,0c8.6,0.4,18.9,1.5,22.4,3c-0.7-1.1,0-2.7,6.3-2.9
						c16.2-0.1,5.6,2.4,15,3.4c3.9-1.4,14.3,0,14.6-2.9c4.8,0,5.6,1.4,7.5,2.2c8.4-1.3,39.2-0.4,29.8-3.5l-2.2-0.2
						c0.4-0.1,0.9-0.1,1.4-0.1c-0.1,0,0,0-0.1,0h0.1c27.5-2.9,57.2,1.7,84.5,0.4l0,1c16.3-1.1,36.3-0.7,48-2.8c4.8,0,11.4,1.8,9.3,3
						c12.5-0.7,13.9-1.9,31.9-0.2c-12.5,1.7,4.3,1.5-12.8,1.3c16.2,0.9,19.9,2.4,37.3-0.3c-5.9,2.5,12.2,3.2,19.9,2.4l-11.4-1.8
						c8.7-0.4,16.2-0.1,23.9,0.1l-4.2,3.3c33.2,4,59.8-6.9,85-0.1c8.8-2.3-18-1.6-10.2-4.4c15.2,0.4,31.1,5.2,35.9,5.2
						c20.9,1.8,19.5-4.9,41.4-3.6c-2.8-1.2-5.4-4.4,10.9-5.5c15.3,0.4,18.8,5,9.1,5.9c-3.7,0.1-5.4-0.3-5.3-0.7
						c-4.9,0.4-11.4,0.9-5.4,2.2l2-1.2c7.6,1.2,28.6,1.1,23.6,3c11.5-1.1,4.9-1.9-3.6-2.6c19.6,1.7,30.6,0.1,50.7,1.2
						c-3.2-0.7-6.2-2-3-2c29.6,1.5,13-2.3,33-2.8c11.4,1.8-4.1,4.3,16.1,2.8c12.3,1.2,2.6,3.1-2.3,4.1c18.4-2.3,34.3,1.5,44.8,1.9
						l-9.7,1c5.8-0.6,10.5-0.6,15.3-0.5l-5.5-2.4c5.7,0.4,10.5,0.4,10.4,1.4c5.9-1.6-4.5-3.9,7.1-6.1c7.6,1.2,23.1-1.3,25.7,1.9
						c-23.8-1.1,2.6,3.2-17.5,3.7c3.9-0.4,8.6-0.4,14.3,0.1c0.9,0.4-0.8,0.7-2.4,0.8c22.8,2.8,10.5-3.6,34.1-3.5
						c-3,1.8,5.5,3.4,9.3,3c-9.5,0-4.6-3,4.2-4.3c15.1,1.4,16.5-1,24.4-0.9l-9.1-0.6c3.1-1.8,10.6-1.5,21.2-2.1
						c0.9,1.4-9.6,1-5.8,1.6c11.7-3.1,26.5,3.2,42.8,1.1c7.6,1.2,0.7,3.3,7.4,4.2c18.3-2.3,19.8,2.4,39.1,0.5
						c-5.5-2.4-6.5-1.8,7-4.1l-31.6,1.7l20.3-3.5c-9.6,0-20.2,1.5-25.9,1.1c9.7-1.9,8.7-1.4,4.1-3.3c13.1,3.6,25.9-2.1,41,0.3
						l-0.5,5.9c22.7,2.6,40.4-3,69.8-1.5l-9.5-1c4-2.3,18.2-0.3,27.8-1.3c-0.9,2,5.1,2.7,9.2,3.9c-0.5-1.5,21.6,0.1,24.3-3.8
						l13.2,2.6c23.8,1.1,27.2-5.6,50.1-5c-6.9,2.1,3.5,3.5-11.8,5.1c7.6,0,14.5,0.4,14.6-1c4.5,1.2,21.2-2.7,28.2-0.8
						c3.2-0.9,4.3-2.9,12.9-2.8c0.9,0.4,0,1,0,1c0-1,13.4-1.3,5.9-3.5c23.5,6.2,65.8-0.4,86.3,4.8c16.7-0.7,36.8-1.3,51.9-1.4
						c-1,0.6,0,1-2.9,0.8c20.9,1.8,12.8-5.7,36.6-3.6c12.1,3.2-12.6,1.7-5.1,2.9c3.3,6.5,28.7-0.9,44.7,2.9l-3.9,0.4
						c12.2,2.2,29.8-2.5,49.8-2c0,0-1,0.6-0.1,1c13.7-3.3,39.5-4.4,58.7-5.3c-6,2.5-8.7,1.3-5.1,3.9c8.6-0.4-2.5-4.1,14.7-4.9
						c5.6,1.4,18,2.6,19.6,5.4l-16.2,0.1c8.3,3.6,21-0.1,29.5,0.5l-1.1,1.6c24.9-0.5,25.2-4.4,51.9-4.2l-2.8-1.2
						c14.6-3.9,12.2,2.2,26.8-0.7l4.4,3.9c9.6-1,33.7-3.8,51-4.6c-9.8,2.9-30,4.4-42.5,6.2c9.6,0,32.5-0.3,37.4-2.2
						c-3.8,0.4-8.7,1.3-12.5,0.7c11.7-3.1,27.1-4.6,46.2-4.6c-2.2,5,19.7,4.3,38.9,4.9l8,0.2l0-8.2c0-1.1-0.3-2.8-1.3-4.4
						c-0.5-0.8-1.2-1.5-2-2.1c-0.7-0.5-1.5-0.9-2.2-1.1c-0.6-0.2-1.5-0.4-1.3-0.3l0,0l-0.1,0l-0.3,0l-0.6-0.1l-0.6-0.1l-1.1-0.1
						c-0.7-0.1-1.3-0.1-2-0.2c-1.3-0.1-2.5-0.2-3.7-0.3c-2.4-0.2-4.7-0.4-6.9-0.7c-4.3-0.5-7.8-1.3-10.2-2.4
						c-33.8,2.3-66.9-1.9-106.1-1.7c13.9,6-11.5,0.1-9.1,6.2c-9.1,0.3-12.6,0.2-13.4-0.2l-27.7-3.8c-6.6-1.8,8.7-1.3,7.9-2.7
						c-20-0.6-8.4-2.6-21.6-4.3c2.7,2.2-7,3.1-18.4,2.2l16,2.9c-28,3.2-24.1-5.2-52.3-2.1l8.9-1.9c-14.5,1.1-53.3-0.2-67.5,4.7
						c-2.6-0.7-5.9-2.4,0.4-2.8c-34.6-0.8-76.9,5.1-103.8,2l2.6-1.5c-6.4,0.4-11.2,2.8-19.3,1.3c0.4-0.6,2.6-1.5-0.4-1.6
						c-3.4,0.5-17.1,2.6-25.7,1.7l7.3-1.7c-33.7-2-51.7,4.1-80,5.1c0.1-4.4-26.4-5.9-39.7-6.6l0.5-0.6c-39.2-0.6-66.7,3.6-103,5.4
						c-22.6-4.8-76.4-2-112.7-4.7c5.5,0.8-0.9,3.4-7.3,3.9c-8.5-0.9-23.5,3.1-22.2-1l3,0.1c-6.4-4-23.9-2.9-37.6-3l-2.2,5.3
						c-35.7-7.7-93.6,2.9-113.1-4c-8.6,1.3-19.3,1.3-27.8,2.7l0.5-2.8c-23.9-0.7-35.8-1-65.3-0.3l6-2c-16.6-0.2-21,8.2-36.4,8.4
						l-4.6-4.2c-29,0.1-58.4-3.6-87.1,0.3c0.5-0.6,1.3-1.8,6-2c-13.7-0.1-52.9-2.8-47.9,3c-0.3-3.8-30-0.3-45.6,1.4l2.4-2.8
						c-13.2,3.6-13.7,4.6-32.1,5.6c-4.4-0.4-3.8-2.2,2-1.5c-14.6-1.4-11.4,2.7-29.1,1.2l6.6-1.8c-15-0.2-13.8,0.8-22.1,2.8
						c-9.4,1.1-28.5-0.7-30.7-3.2c-2,1.5-10.2,3.6-19.1,2.9c-1.2-0.9,2-1.5,3.6-1.8c-25.1-1.9-37.3,3.3-54.6,0.6
						c-0.4-0.9-1.5-1.4-2.9-1.7c20,0,36,0.2,34.5,0.4c0-2.6-16.1-3-3.3-6.6c-12.9,2-35,6.2-50.8,5c-0.8-0.2-1.5-0.5-2.1-0.9l1.6-0.3
						c-3.6-0.2-6.9,0-9.9,0.4c-5-0.4-8.2-0.7-13-0.8c-1.9-2.1-18.5-1.1-26.5-1.2c0.7,2.8-9.9,2.4,0,4.7c-1.3-0.2,1.5-0.3,6.9-0.5
						c1.2-0.1,2.6-0.1,3.4-0.3c-0.2,0.1-0.3,0.2-0.5,0.2c5.3-0.1,12.2-0.2,20-0.2c-6.3,1.4-13,2.7-21.9,1.1
						c-4.1,1.8-8.7,3.7-11.2,4.6c-11-3.9-32.2-6-35.2-8.4c-24.5,1.6-57.8,1.2-73.2,6.5c-7,0.7-8-1.5-10.6-2.3c4-0.5,8.8-0.5,11-1.2
						c-13.9,1.4-41.3,0.6-44.7,4.3c-17.6-1.6,9.9-3.4-14.3-2.8l3.3-1.1c-47.5-5.8-77.2,9.6-130,2.1c3.7,0.5,5.5,0.7,6.2,1.3
						c-60.1-3.2-123.8,3.4-183.1-1.7c-16.9-1-18.7,1.3-29,3.2l-3.7-3l-17.6,3.5c-24.9,2.6-43.2-7.3-74.7-2.4l4.1,2
						c-11.3-0.4-35.9,1.3-34-1.1c-1.2,0.4-3.7,2.1-8.1,1.1l-0.3-1.6l-27.8,2.8c-21.6-1.1,3.4-6.3-28.1-6.5
						c-11.7,0.6-33.3,4.7-28.9,5.7c4.7,0.1,12.1,1,12.4,2.5l-10.7,0.9c-1.9,4.7-10.2,9.5,16.1,12.6l18.3-2.9l5.9,2.2l-15.4,0.2
						c8.8,2.1,14.3,0.2,20.5-1.1c1.5,1.2,4,2,7.7,2.5l18-4.5c2.2,1.8-8.1,3.6,4,4.6c8.4-2.1-8.1-4.1,5.9-5.5c8.8,2.1,6.2,3.8,16.5,2
						c1.4,1.2-0.7,2-4.8,2.5c9.2-1.5,24.2-0.7,29-3.2c9.1,2.6,30.9-0.8,30,3.6c2.9-1.1,16.1-3.5,24.5-3.7
						c-15.4,5.3,31.5,0.2,27.4,5.9c11.4-4.8,41.1-2.2,61.2-4.9c-1.1,0.4-3.3,1.1-5.1,0.9c11.3,0.4,14.6,1.8,21.9,2.7
						c1.4-3.9,19.1-4.9,28.6-7.3c13.9,3.7-8.4,4.6-4.1,8.2c-0.7-3.2,24.1-3.2,19.4-5.9c10.6,2.3,9.2,1.1,14.6,4.3
						c1.9-4.9,9.9-0.9,18.7-3.9c15.4,2.4,4,4.6,20.9,3.1C414,1348.2,398.9,1350,398.9,1350z M800.7,1340.7
						C800.7,1340.7,800.7,1340.7,800.7,1340.7c-3.5,0.1-6.4,0.2-8.3,0.2C794.2,1340.9,796.6,1340.8,800.7,1340.7z M834.5,1340.6
						c-4.1-0.1-9.2-0.1-14.6-0.1c-1.2-1,0.1-2,3.5-1.9C821.5,1339.2,829.5,1339.8,834.5,1340.6z M763,1321.2
						c5.3-0.4,7.1,0.1,7.9,0.7c-2.5,0.1-5.5,0.2-9.3,0.4c-0.2,0.1-0.5,0.2-0.6,0.3C761.4,1322.1,762,1321.6,763,1321.2z"/>
					<path class="st6" d="M753.4,1324.9c-0.8,0.1-1.2,0.2-2.2,0.2c1.1,0.2,2.1,0.5,3.2,0.6c0.6-0.3,1.3-0.6,1.9-0.9
						C755.3,1324.9,754.3,1324.9,753.4,1324.9z"/>
					<path class="st6" d="M695.5,1339.2l0.7,0.1c-0.6-0.1-1.1-0.2-1.5-0.4C695.2,1339,695.2,1339.1,695.5,1339.2z"/>
					<polygon class="st6" points="1300.8,1345.3 1300.7,1344.6 1297.8,1345.2 					"/>
					<path class="st6" d="M509.5,1329.5c-0.4-0.2-1.1-0.5-2.4-0.7C507.2,1329,508.3,1329.3,509.5,1329.5z"/>
					<path class="st6" d="M429.2,1328.9l-11.4-1C422.8,1328.5,426.3,1328.7,429.2,1328.9z"/>
					<path class="st6" d="M367.4,1327.5c-0.8,0.5-1,0.9-1.2,1.2c0,0,0.1,0,0.1,0L367.4,1327.5z"/>
					<path class="st6" d="M1349.5,1324.2c0.8,0,1.7-0.1,2.4-0.1C1357.5,1323.5,1353.7,1323.7,1349.5,1324.2z"/>
					<path class="st6" d="M1057.3,1330.8c3.1-0.5,6.2-1,9.4-1.3C1061.5,1329.2,1057.4,1329.2,1057.3,1330.8z"/>
					<path class="st6" d="M1675.9,1320.8C1675.9,1320.8,1675.9,1320.8,1675.9,1320.8c0.7,0,1.3,0,2,0L1675.9,1320.8z"/>
					<path class="st6" d="M1080.3,1329.5c-5.2-0.6-9.6-0.4-13.6,0C1070.9,1329.6,1076,1329.9,1080.3,1329.5z"/>
					<path class="st6" d="M99.7,1326.2l-3-0.1c0,0.2-0.1,0.3-0.4,0.5L99.7,1326.2z"/>
					<path class="st6" d="M96.4,1326.6l-3.3,0.3C94.6,1326.9,95.9,1326.9,96.4,1326.6z"/>
					<path class="st6" d="M86.1,1327.6l7-0.7C90.7,1326.9,87.7,1326.8,86.1,1327.6z"/>
					<path class="st6" d="M181.5,1327.5l0.9-1C181.9,1326.7,181.6,1327.1,181.5,1327.5z"/>
					<path class="st6" d="M206.3,1327.2c-5.9-0.2-14.9-2.2-23.1-1.5l-0.8,0.8C186.3,1325,200.7,1329,206.3,1327.2z"/>
					<path class="st6" d="M310.1,1339.8l-20.8-0.8c3.6,1.1,8.4,2.5-1,2.8C314.4,1345.1,282.8,1339.4,310.1,1339.8z"/>
					<path class="st6" d="M374.6,1341.4c-11.2,0.5,0.1,1.6-0.5,2.2C381.3,1342.6,383,1342.4,374.6,1341.4z"/>
					<path class="st6" d="M841.2,1341.4l-1.1,2.6C848.7,1343.6,840.2,1343,841.2,1341.4z"/>
					<polygon class="st6" points="930.4,1328.2 922,1326.6 918,1329 					"/>
					<polygon class="st6" points="983.1,1346.4 979.3,1346.8 993.7,1345.9 					"/>
					<path class="st6" d="M1766.7,1345.5l-2.6-3.1C1758.3,1342.9,1757,1346.5,1766.7,1345.5z"/>
					<path class="st6" d="M2105,1342.3c3.7,1.6,13.2,2.6,19.1,1C2116.4,1343.1,2108.9,1341.9,2105,1342.3z"/>
					<polygon class="st6" points="1390.5,1320 1397.3,1318.9 1384.5,1319.8 					"/>
				</g>
			</g>
		</g>
	</g>
</g>
</svg>
